<svg width="547" height="547" viewBox="0 0 547 547" fill="none" xmlns="http://www.w3.org/2000/svg">
<g clip-path="url(#clip0_17_74)">
<path d="M0 100C0 44.7715 44.7715 0 100 0H547V447C547 502.228 502.228 547 447 547H100C44.7715 547 0 502.228 0 447V100Z" fill="white"/>
<rect width="547" height="547" fill="#303030"/>
<path d="M480.158 66.4998C525.066 66.4998 580.374 79.5175 632.817 103.083C685.258 126.648 734.567 160.64 767.649 202.364C792.455 233.649 804.24 282.316 806.811 340.97C809.378 399.524 802.746 467.536 791.186 537.048C768.069 676.06 725.323 820.618 697.563 906.617C688.114 935.893 649.418 940.234 633.143 913.925L516.711 725.709C499.907 698.545 460.399 698.537 443.583 725.693L388.812 814.148C378.273 831.169 356.107 836.72 338.79 826.676L310.129 810.05L17.409 624.368C-9.70733 607.167 -3.8453 565.464 26.9616 556.148C100.523 533.903 208.108 499.42 297.334 462.977C341.93 444.763 382.063 426.01 411.091 407.999C425.596 398.999 437.457 390.106 445.726 381.468C453.931 372.897 459 364.16 459 355.5C459 340.017 450.129 327.837 436.301 318.376C422.517 308.945 403.46 301.946 382.107 296.723C339.361 286.267 286.432 282.703 245.404 281.685C231.38 281.336 219.957 273.954 214.021 263.9C208.115 253.896 207.601 241.215 215.465 229.852C260.773 164.386 350.296 66.4998 480.158 66.4998Z" fill="white" stroke="#303030" stroke-width="6"/>
</g>
<defs>
<clipPath id="clip0_17_74">
<path d="M0 100C0 44.7715 44.7715 0 100 0H547V447C547 502.228 502.228 547 447 547H100C44.7715 547 0 502.228 0 447V100Z" fill="white"/>
</clipPath>
</defs>
</svg>
