<svg width="547" height="547" viewBox="0 0 547 547" fill="none" xmlns="http://www.w3.org/2000/svg">
<g clip-path="url(#clip0_12_23)">
<path d="M0 100C0 44.7715 44.7715 0 100 0H547V447C547 502.228 502.228 547 447 547H100C44.7715 547 0 502.228 0 447V100Z" fill="white"/>
<rect width="547" height="547" fill="#E43967"/>
<path d="M480.158 66.4997C525.066 66.4998 580.374 79.5174 632.817 103.083C685.258 126.648 734.567 160.64 767.649 202.364C792.455 233.649 804.24 282.316 806.811 340.97C809.378 399.524 802.746 467.536 791.186 537.048C768.069 676.06 725.323 820.618 697.563 906.617C688.114 935.893 649.418 940.234 633.143 913.925L516.711 725.709C499.907 698.545 460.399 698.536 443.583 725.693L388.812 814.148C378.273 831.169 356.107 836.72 338.79 826.676L310.129 810.05L17.409 624.368C-9.70732 607.167 -3.84528 565.464 26.9617 556.148C100.523 533.903 208.108 499.419 297.334 462.977C341.93 444.763 382.063 426.01 411.091 407.998C425.596 398.999 437.457 390.106 445.726 381.468C453.931 372.897 459 364.16 459 355.5C459 340.016 450.129 327.837 436.301 318.376C422.517 308.945 403.46 301.946 382.107 296.723C339.361 286.267 286.432 282.703 245.404 281.684C231.38 281.336 219.957 273.954 214.021 263.9C208.115 253.896 207.601 241.215 215.465 229.852C260.773 164.386 350.296 66.4997 480.158 66.4997Z" fill="white" stroke="#E43967" stroke-width="6"/>
<path d="M176.309 387.1C163.256 387.1 151.449 384.167 140.889 378.3C130.476 372.433 122.189 363.853 116.029 352.56C109.869 341.12 106.789 327.48 106.789 311.64C106.789 289.347 110.822 269.693 118.889 252.68C127.102 235.667 138.176 222.54 152.109 213.3C166.189 204.06 181.736 199.44 198.749 199.44C211.802 199.44 223.536 202.373 233.949 208.24C244.509 214.107 252.869 222.76 259.029 234.2C265.189 245.493 268.269 259.06 268.269 274.9C268.269 297.193 264.162 316.847 255.949 333.86C247.882 350.873 236.809 364 222.729 373.24C208.796 382.48 193.322 387.1 176.309 387.1ZM178.509 361.14C189.949 361.14 199.996 357.62 208.649 350.58C217.449 343.54 224.196 333.787 228.889 321.32C233.582 308.707 235.929 294.48 235.929 278.64C235.929 261.187 232.262 247.987 224.929 239.04C217.596 229.947 208.136 225.4 196.549 225.4C185.256 225.4 175.282 228.92 166.629 235.96C157.976 242.853 151.229 252.607 146.389 265.22C141.549 277.687 139.129 291.913 139.129 307.9C139.129 325.353 142.796 338.627 150.129 347.72C157.462 356.667 166.922 361.14 178.509 361.14Z" fill="white"/>
<path d="M463.278 245.2C463.278 257.667 458.878 268.447 450.078 277.54C441.278 286.487 428.445 292.94 411.578 296.9C420.672 299.393 427.565 303.5 432.258 309.22C436.952 314.793 439.298 321.247 439.298 328.58C439.298 340.167 435.632 350.213 428.298 358.72C421.112 367.227 410.552 373.827 396.618 378.52C382.685 383.067 365.892 385.34 346.238 385.34C338.905 385.34 333.038 385.12 328.638 384.68C328.492 388.787 326.732 391.867 323.358 393.92C319.985 395.973 315.658 397 310.378 397C305.098 397 301.432 395.827 299.378 393.48C297.472 391.133 296.665 387.687 296.958 383.14C298.278 362.607 300.845 341.12 304.658 318.68C308.472 296.093 313.312 274.313 319.178 253.34C320.205 249.673 322.258 247.107 325.338 245.64C328.418 244.173 332.452 243.44 337.438 243.44C346.385 243.44 350.858 245.933 350.858 250.92C350.858 252.973 350.418 255.32 349.538 257.96C345.725 269.4 341.912 284.947 338.098 304.6C334.285 324.107 331.572 342.733 329.958 360.48C336.998 361.067 342.718 361.36 347.118 361.36C367.652 361.36 382.685 358.427 392.218 352.56C401.898 346.547 406.738 338.92 406.738 329.68C406.738 323.227 403.952 317.8 398.378 313.4C392.952 309 383.785 306.58 370.878 306.14C367.945 305.993 365.892 305.26 364.718 303.94C363.545 302.62 362.958 300.493 362.958 297.56C362.958 293.307 363.838 289.86 365.598 287.22C367.358 284.58 370.585 283.187 375.278 283.04C385.692 282.747 395.078 281.207 403.438 278.42C411.945 275.633 418.618 271.747 423.458 266.76C428.298 261.627 430.718 255.687 430.718 248.94C430.718 240.433 426.538 233.76 418.178 228.92C409.818 223.933 396.985 221.44 379.678 221.44C363.985 221.44 348.805 223.493 334.138 227.6C319.472 231.56 307.005 236.62 296.738 242.78C292.045 245.567 288.085 246.96 284.858 246.96C282.218 246.96 280.165 246.08 278.698 244.32C277.378 242.413 276.718 240.067 276.718 237.28C276.718 233.613 277.452 230.46 278.918 227.82C280.532 225.18 284.272 222.173 290.138 218.8C302.458 211.76 316.905 206.26 333.478 202.3C350.052 198.34 366.992 196.36 384.298 196.36C410.845 196.36 430.645 200.833 443.698 209.78C456.752 218.727 463.278 230.533 463.278 245.2Z" fill="#E43967"/>
<path d="M463.474 245.2C463.474 257.667 459.074 268.447 450.274 277.54C441.474 286.487 428.64 292.94 411.774 296.9C420.867 299.393 427.76 303.5 432.454 309.22C437.147 314.793 439.494 321.247 439.494 328.58C439.494 340.167 435.827 350.213 428.494 358.72C421.307 367.227 410.747 373.827 396.814 378.52C382.88 383.067 366.087 385.34 346.434 385.34C339.1 385.34 333.234 385.12 328.834 384.68C328.687 388.787 326.927 391.867 323.554 393.92C320.18 395.973 315.854 397 310.574 397C305.294 397 301.627 395.827 299.574 393.48C297.667 391.133 296.86 387.687 297.154 383.14C298.474 362.607 301.04 341.12 304.854 318.68C308.667 296.093 313.507 274.313 319.374 253.34C320.4 249.673 322.454 247.107 325.534 245.64C328.614 244.173 332.647 243.44 337.634 243.44C346.58 243.44 351.054 245.933 351.054 250.92C351.054 252.973 350.614 255.32 349.734 257.96C345.92 269.4 342.107 284.947 338.294 304.6C334.48 324.107 331.767 342.733 330.154 360.48C337.194 361.067 342.914 361.36 347.314 361.36C367.847 361.36 382.88 358.427 392.414 352.56C402.094 346.547 406.934 338.92 406.934 329.68C406.934 323.227 404.147 317.8 398.574 313.4C393.147 309 383.98 306.58 371.074 306.14C368.14 305.993 366.087 305.26 364.914 303.94C363.74 302.62 363.154 300.493 363.154 297.56C363.154 293.307 364.034 289.86 365.794 287.22C367.554 284.58 370.78 283.187 375.474 283.04C385.887 282.747 395.274 281.207 403.634 278.42C412.14 275.633 418.814 271.747 423.654 266.76C428.494 261.627 430.914 255.687 430.914 248.94C430.914 240.433 426.734 233.76 418.374 228.92C410.014 223.933 397.18 221.44 379.874 221.44C364.18 221.44 349 223.493 334.334 227.6C319.667 231.56 307.2 236.62 296.934 242.78C292.24 245.567 288.28 246.96 285.054 246.96C282.414 246.96 280.36 246.08 278.894 244.32C277.574 242.413 276.914 240.067 276.914 237.28C276.914 233.613 277.647 230.46 279.114 227.82C280.727 225.18 284.467 222.173 290.334 218.8C302.654 211.76 317.1 206.26 333.674 202.3C350.247 198.34 367.187 196.36 384.494 196.36C411.04 196.36 430.84 200.833 443.894 209.78C456.947 218.727 463.474 230.533 463.474 245.2Z" fill="url(#paint0_linear_12_23)"/>
<path d="M217.5 232L234.5 208.5C234.5 208.5 251.959 226.234 258.5 240C265.041 253.766 268 279 268 279L236 277C236 277 234.917 260.787 231.5 252C228.083 243.213 217.5 232 217.5 232Z" fill="#E43967"/>
<path d="M314 274L344.5 276L342 286L312 282.5L314 274Z" fill="#E43967"/>
<path d="M366 286.5L368 285L369 284.5L370 284L373 283L434.5 289L428 292L413.5 297.5L364 290L366 286.5Z" fill="#E43967"/>
</g>
<defs>
<linearGradient id="paint0_linear_12_23" x1="335.5" y1="277" x2="334.5" y2="284" gradientUnits="userSpaceOnUse">
<stop stop-color="#E43967"/>
<stop offset="1" stop-color="white"/>
</linearGradient>
<clipPath id="clip0_12_23">
<path d="M0 100C0 44.7715 44.7715 0 100 0H547V447C547 502.228 502.228 547 447 547H100C44.7715 547 0 502.228 0 447V100Z" fill="white"/>
</clipPath>
</defs>
</svg>
