<svg width="514" height="184" viewBox="0 0 514 184" fill="none" xmlns="http://www.w3.org/2000/svg">
<g clip-path="url(#clip0_7_3)">
<g filter="url(#filter0_dnn_7_3)">
<path d="M69.386 66.672C71.178 66.672 72.6713 67.312 73.866 68.592C75.146 69.7867 75.786 71.3227 75.786 73.2V106.864C75.786 115.739 73.3113 122.693 68.362 127.728C63.4127 132.677 56.4153 135.152 47.37 135.152C38.41 135.152 31.4553 132.677 26.506 127.728C21.642 122.693 19.21 115.739 19.21 106.864V73.2C19.21 71.3227 19.8073 69.7867 21.002 68.592C22.1967 67.312 23.7327 66.672 25.61 66.672C27.402 66.672 28.8953 67.312 30.09 68.592C31.37 69.7867 32.01 71.3227 32.01 73.2V106.864C32.01 112.411 33.29 116.549 35.85 119.28C38.4953 122.011 42.3353 123.376 47.37 123.376C52.49 123.376 56.3727 122.011 59.018 119.28C61.6633 116.549 62.986 112.411 62.986 106.864V73.2C62.986 71.3227 63.5833 69.7867 64.778 68.592C65.9727 67.312 67.5087 66.672 69.386 66.672ZM127.377 65.52C133.692 65.52 138.556 67.0987 141.969 70.256C145.382 73.328 147.644 77.5093 148.753 82.8L146.705 82.16L147.601 80.112C148.71 77.8933 150.374 75.6747 152.593 73.456C154.897 71.152 157.628 69.2747 160.785 67.824C163.942 66.288 167.313 65.52 170.897 65.52C176.785 65.52 181.35 66.8 184.593 69.36C187.836 71.8347 190.097 75.2053 191.377 79.472C192.657 83.6533 193.297 88.3467 193.297 93.552V127.472C193.297 129.349 192.7 130.928 191.505 132.208C190.31 133.403 188.774 134 186.897 134C185.105 134 183.569 133.403 182.289 132.208C181.094 130.928 180.497 129.349 180.497 127.472V93.68C180.497 90.6933 180.07 87.9627 179.217 85.488C178.449 83.0133 177.041 81.0507 174.993 79.6C173.03 78.064 170.3 77.296 166.801 77.296C163.473 77.296 160.486 78.064 157.841 79.6C155.281 81.0507 153.276 83.0133 151.825 85.488C150.374 87.9627 149.649 90.6933 149.649 93.68V127.472C149.649 129.349 149.052 130.928 147.857 132.208C146.662 133.403 145.126 134 143.249 134C141.372 134 139.836 133.403 138.641 132.208C137.446 130.928 136.849 129.349 136.849 127.472V93.552C136.849 90.5653 136.422 87.8347 135.569 85.36C134.801 82.8853 133.436 80.9227 131.473 79.472C129.51 78.0213 126.78 77.296 123.281 77.296C119.953 77.296 117.009 78.0213 114.449 79.472C111.889 80.9227 109.884 82.8853 108.433 85.36C107.068 87.8347 106.385 90.5653 106.385 93.552V127.472C106.385 129.349 105.745 130.928 104.465 132.208C103.27 133.403 101.777 134 99.985 134C98.1077 134 96.5717 133.403 95.377 132.208C94.1823 130.928 93.585 129.349 93.585 127.472V73.2C93.585 71.3227 94.1823 69.7867 95.377 68.592C96.5717 67.312 98.1077 66.672 99.985 66.672C101.777 66.672 103.27 67.312 104.465 68.592C105.745 69.7867 106.385 71.3227 106.385 73.2V80.752L103.953 82.16C104.55 80.2827 105.532 78.3627 106.897 76.4C108.262 74.4373 109.969 72.6453 112.017 71.024C114.15 69.4027 116.497 68.08 119.057 67.056C121.617 66.032 124.39 65.52 127.377 65.52ZM266.378 65.648C268.255 65.648 269.791 66.288 270.986 67.568C272.181 68.7627 272.778 70.2987 272.778 72.176V127.472C272.778 129.349 272.181 130.928 270.986 132.208C269.791 133.403 268.255 134 266.378 134C264.586 134 263.05 133.403 261.77 132.208C260.575 130.928 259.978 129.349 259.978 127.472V118.256L262.666 118.64C262.666 120.176 262.026 121.883 260.746 123.76C259.551 125.637 257.887 127.472 255.754 129.264C253.621 130.971 251.103 132.421 248.202 133.616C245.301 134.725 242.186 135.28 238.858 135.28C232.97 135.28 227.679 133.787 222.986 130.8C218.293 127.728 214.581 123.547 211.85 118.256C209.119 112.965 207.754 106.949 207.754 100.208C207.754 93.296 209.119 87.2373 211.85 82.032C214.581 76.7413 218.25 72.6027 222.858 69.616C227.551 66.6293 232.757 65.136 238.474 65.136C242.143 65.136 245.514 65.7333 248.586 66.928C251.743 68.1227 254.474 69.6587 256.778 71.536C259.082 73.4133 260.831 75.4187 262.026 77.552C263.306 79.6 263.946 81.5627 263.946 83.44L259.978 83.824V72.176C259.978 70.384 260.575 68.848 261.77 67.568C263.05 66.288 264.586 65.648 266.378 65.648ZM240.266 123.504C244.277 123.504 247.818 122.48 250.89 120.432C253.962 118.384 256.351 115.611 258.058 112.112C259.765 108.528 260.618 104.56 260.618 100.208C260.618 95.7707 259.765 91.8027 258.058 88.304C256.351 84.8053 253.962 82.032 250.89 79.984C247.818 77.936 244.277 76.912 240.266 76.912C236.341 76.912 232.842 77.936 229.77 79.984C226.783 82.032 224.394 84.8053 222.602 88.304C220.895 91.8027 220.042 95.7707 220.042 100.208C220.042 104.56 220.895 108.528 222.602 112.112C224.394 115.611 226.783 118.384 229.77 120.432C232.842 122.48 236.341 123.504 240.266 123.504ZM322.07 135.28C314.987 135.28 308.843 133.829 303.638 130.928C298.433 127.941 294.379 123.888 291.478 118.768C288.662 113.563 287.254 107.632 287.254 100.976C287.254 93.4667 288.747 87.0667 291.734 81.776C294.806 76.4 298.774 72.304 303.638 69.488C308.502 66.5867 313.665 65.136 319.126 65.136C323.307 65.136 327.275 65.9893 331.03 67.696C334.785 69.3173 338.113 71.6213 341.014 74.608C344.001 77.5093 346.347 80.9653 348.054 84.976C349.761 88.9013 350.657 93.2107 350.742 97.904C350.657 99.6107 349.974 101.019 348.694 102.128C347.414 103.237 345.921 103.792 344.214 103.792H294.422L291.35 92.912H339.478L337.046 95.216V92.016C336.875 89.0293 335.894 86.4267 334.102 84.208C332.31 81.904 330.091 80.1547 327.446 78.96C324.801 77.68 322.027 77.04 319.126 77.04C316.566 77.04 314.091 77.4667 311.702 78.32C309.398 79.088 307.307 80.368 305.43 82.16C303.638 83.952 302.187 86.3413 301.078 89.328C300.054 92.2293 299.542 95.856 299.542 100.208C299.542 104.901 300.523 108.997 302.486 112.496C304.449 115.995 307.094 118.725 310.422 120.688C313.75 122.565 317.419 123.504 321.43 123.504C324.587 123.504 327.19 123.205 329.238 122.608C331.286 121.925 332.993 121.115 334.358 120.176C335.723 119.237 336.918 118.341 337.942 117.488C339.222 116.72 340.502 116.336 341.782 116.336C343.318 116.336 344.598 116.891 345.622 118C346.646 119.024 347.158 120.261 347.158 121.712C347.158 123.589 346.219 125.296 344.342 126.832C342.038 129.051 338.838 131.013 334.742 132.72C330.731 134.427 326.507 135.28 322.07 135.28ZM371.61 134C369.733 134 368.197 133.403 367.002 132.208C365.807 130.928 365.21 129.349 365.21 127.472V73.2C365.21 71.3227 365.807 69.7867 367.002 68.592C368.197 67.312 369.733 66.672 371.61 66.672C373.402 66.672 374.895 67.312 376.09 68.592C377.37 69.7867 378.01 71.3227 378.01 73.2V87.536L376.73 82.032C377.413 79.6427 378.437 77.424 379.802 75.376C381.253 73.328 382.959 71.536 384.922 70C386.885 68.464 389.061 67.2693 391.45 66.416C393.925 65.5627 396.485 65.136 399.13 65.136C401.349 65.136 403.269 65.7333 404.89 66.928C406.511 68.1227 407.322 69.616 407.322 71.408C407.322 73.712 406.725 75.4187 405.53 76.528C404.335 77.552 403.013 78.064 401.562 78.064C400.282 78.064 399.045 77.808 397.85 77.296C396.655 76.6987 395.247 76.4 393.626 76.4C391.834 76.4 389.999 76.8693 388.122 77.808C386.245 78.7467 384.538 80.1547 383.002 82.032C381.466 83.824 380.229 85.9573 379.29 88.432C378.437 90.9067 378.01 93.68 378.01 96.752V127.472C378.01 129.349 377.37 130.928 376.09 132.208C374.895 133.403 373.402 134 371.61 134ZM472.378 65.648C474.255 65.648 475.791 66.288 476.986 67.568C478.181 68.7627 478.778 70.2987 478.778 72.176V127.472C478.778 129.349 478.181 130.928 476.986 132.208C475.791 133.403 474.255 134 472.378 134C470.586 134 469.05 133.403 467.77 132.208C466.575 130.928 465.978 129.349 465.978 127.472V118.256L468.666 118.64C468.666 120.176 468.026 121.883 466.746 123.76C465.551 125.637 463.887 127.472 461.754 129.264C459.621 130.971 457.103 132.421 454.202 133.616C451.301 134.725 448.186 135.28 444.858 135.28C438.97 135.28 433.679 133.787 428.986 130.8C424.293 127.728 420.581 123.547 417.85 118.256C415.119 112.965 413.754 106.949 413.754 100.208C413.754 93.296 415.119 87.2373 417.85 82.032C420.581 76.7413 424.25 72.6027 428.858 69.616C433.551 66.6293 438.757 65.136 444.474 65.136C448.143 65.136 451.514 65.7333 454.586 66.928C457.743 68.1227 460.474 69.6587 462.778 71.536C465.082 73.4133 466.831 75.4187 468.026 77.552C469.306 79.6 469.946 81.5627 469.946 83.44L465.978 83.824V72.176C465.978 70.384 466.575 68.848 467.77 67.568C469.05 66.288 470.586 65.648 472.378 65.648ZM446.266 123.504C450.277 123.504 453.818 122.48 456.89 120.432C459.962 118.384 462.351 115.611 464.058 112.112C465.765 108.528 466.618 104.56 466.618 100.208C466.618 95.7707 465.765 91.8027 464.058 88.304C462.351 84.8053 459.962 82.032 456.89 79.984C453.818 77.936 450.277 76.912 446.266 76.912C442.341 76.912 438.842 77.936 435.77 79.984C432.783 82.032 430.394 84.8053 428.602 88.304C426.895 91.8027 426.042 95.7707 426.042 100.208C426.042 104.56 426.895 108.528 428.602 112.112C430.394 115.611 432.783 118.384 435.77 120.432C438.842 122.48 442.341 123.504 446.266 123.504Z" fill="white"/>
</g>
</g>
<defs>
<filter id="filter0_dnn_7_3" x="15.21" y="65.136" width="467.568" height="78.144" filterUnits="userSpaceOnUse" color-interpolation-filters="sRGB">
<feFlood flood-opacity="0" result="BackgroundImageFix"/>
<feColorMatrix in="SourceAlpha" type="matrix" values="0 0 0 0 0 0 0 0 0 0 0 0 0 0 0 0 0 0 127 0" result="hardAlpha"/>
<feOffset dy="4"/>
<feGaussianBlur stdDeviation="2"/>
<feComposite in2="hardAlpha" operator="out"/>
<feColorMatrix type="matrix" values="0 0 0 0 0 0 0 0 0 0 0 0 0 0 0 0 0 0 0.25 0"/>
<feBlend mode="normal" in2="BackgroundImageFix" result="effect1_dropShadow_7_3"/>
<feBlend mode="normal" in="SourceGraphic" in2="BackgroundImageFix" result="shape"/>
<feTurbulence type="fractalNoise" baseFrequency="0.3571428656578064 0.3571428656578064" stitchTiles="stitch" numOctaves="3" result="noise" seed="3497" />
<feColorMatrix in="noise" type="luminanceToAlpha" result="alphaNoise" />
<feComponentTransfer in="alphaNoise" result="coloredNoise1">
<feFuncA type="discrete" tableValues="1 1 1 1 1 1 1 1 1 1 1 1 1 1 1 1 1 1 1 1 1 1 1 1 1 1 1 1 1 1 1 1 1 1 1 1 1 1 1 1 1 1 1 1 1 1 1 1 1 1 1 0 0 0 0 0 0 0 0 0 0 0 0 0 0 0 0 0 0 0 0 0 0 0 0 0 0 0 0 0 0 0 0 0 0 0 0 0 0 0 0 0 0 0 0 0 0 0 0 0 "/>
</feComponentTransfer>
<feComposite operator="in" in2="shape" in="coloredNoise1" result="noise1Clipped" />
<feFlood flood-color="rgba(0, 0, 0, 0.43)" result="color1Flood" />
<feComposite operator="in" in2="noise1Clipped" in="color1Flood" result="color1" />
<feMerge result="effect2_noise_7_3">
<feMergeNode in="shape" />
<feMergeNode in="color1" />
</feMerge>
<feTurbulence type="fractalNoise" baseFrequency="0.061728391796350479 0.061728391796350479" stitchTiles="stitch" numOctaves="3" result="noise" seed="1671" />
<feComponentTransfer in="noise" result="coloredNoise1">
<feFuncR type="linear" slope="2" intercept="-0.5" />
<feFuncG type="linear" slope="2" intercept="-0.5" />
<feFuncB type="linear" slope="2" intercept="-0.5" />
<feFuncA type="discrete" tableValues="1 1 1 1 1 1 1 1 1 1 1 1 1 1 1 1 1 1 1 1 1 1 1 1 1 1 1 1 1 1 1 1 1 1 1 1 1 1 1 1 1 1 1 1 1 1 1 1 1 1 1 0 0 0 0 0 0 0 0 0 0 0 0 0 0 0 0 0 0 0 0 0 0 0 0 0 0 0 0 0 0 0 0 0 0 0 0 0 0 0 0 0 0 0 0 0 0 0 0 0 "/>
</feComponentTransfer>
<feComposite operator="in" in2="effect2_noise_7_3" in="coloredNoise1" result="noise1Clipped" />
<feComponentTransfer in="noise1Clipped" result="color1">
<feFuncA type="table" tableValues="0 0.72" />
</feComponentTransfer>
<feMerge result="effect3_noise_7_3">
<feMergeNode in="effect2_noise_7_3" />
<feMergeNode in="color1" />
</feMerge>
<feBlend mode="normal" in="effect3_noise_7_3" in2="effect1_dropShadow_7_3" result="effect3_noise_7_3"/>
</filter>
<clipPath id="clip0_7_3">
<rect width="514" height="184" fill="white"/>
</clipPath>
</defs>
</svg>
