<?xml version="1.0" standalone="no"?>
<!DOCTYPE svg PUBLIC "-//W3C//DTD SVG 20010904//EN"
 "http://www.w3.org/TR/2001/REC-SVG-20010904/DTD/svg10.dtd">
<svg version="1.0" xmlns="http://www.w3.org/2000/svg"
 width="100.000000pt" height="100.000000pt" viewBox="0 0 100.000000 100.000000"
 preserveAspectRatio="xMidYMid meet">

<g transform="translate(0.000000,100.000000) scale(0.100000,-0.100000)"
fill="#000000" stroke="none">
<path d="M465 990 c-94 -20 -109 -50 -107 -209 l2 -126 -54 -78 c-53 -76 -106
-189 -106 -225 0 -14 8 -18 35 -19 34 -1 34 -1 46 58 11 58 58 139 79 139 6 0
5 8 -2 19 -10 16 -7 27 13 65 20 39 22 49 11 66 -15 24 -16 56 -2 65 6 3 7 17
4 31 -17 66 36 106 59 44 13 -34 47 -42 47 -12 0 27 35 55 58 48 23 -8 41 -48
40 -93 -1 -26 -4 -29 -17 -21 -9 6 -16 23 -16 41 0 25 -4 32 -20 32 -11 0 -21
-9 -25 -20 -7 -28 -73 -29 -80 -1 -3 11 -11 21 -18 24 -17 5 -27 -27 -14 -48
9 -14 8 -21 -3 -30 -17 -14 -20 -40 -4 -40 5 0 8 -4 4 -9 -7 -12 47 -51 69
-51 28 0 114 49 119 67 3 12 5 9 5 -7 0 -14 16 -63 37 -110 58 -134 65 -159
65 -221 0 -33 4 -59 10 -59 6 0 10 -11 10 -24 0 -36 35 -44 66 -15 14 13 23
28 20 35 -3 7 2 10 14 7 41 -11 35 89 -12 181 -11 22 -40 68 -64 102 -56 78
-65 102 -74 202 -9 88 -28 132 -71 164 -32 24 -85 36 -124 28z m105 -61 c0 -5
-4 -9 -10 -9 -5 0 -10 7 -10 16 0 8 5 12 10 9 6 -3 10 -10 10 -16z m0 -204 c0
-6 -76 -45 -87 -45 -4 1 12 12 37 25 50 27 50 27 50 20z m80 -52 c0 -20 -24
-11 -28 10 -2 12 1 15 12 11 9 -3 16 -13 16 -21z m-187 0 c-7 -2 -19 -2 -25 0
-7 3 -2 5 12 5 14 0 19 -2 13 -5z m297 -267 c0 -39 -6 -30 -13 19 -4 27 -3 35
3 25 5 -8 10 -28 10 -44z m-20 -73 c-11 -17 -11 -17 -6 0 3 10 6 24 7 30 0 9
2 9 5 0 3 -7 0 -20 -6 -30z"/>
<path d="M186 285 c-18 -23 -38 -36 -61 -41 -19 -3 -35 -9 -36 -13 0 -3 -1
-40 -2 -81 l-2 -75 45 -13 c25 -7 75 -21 111 -32 36 -11 79 -20 95 -20 33 0
74 35 74 62 0 9 -27 58 -61 109 -100 154 -117 165 -163 104z"/>
<path d="M646 288 c-5 -17 -18 -195 -17 -228 3 -59 76 -71 138 -22 21 16 64
46 96 66 31 20 57 42 57 48 0 6 -18 26 -40 45 -30 26 -40 42 -40 64 0 36 -17
37 -49 3 -34 -36 -85 -31 -89 9 -3 21 -9 27 -28 27 -14 0 -26 -6 -28 -12z"/>
<path d="M311 270 c8 -14 25 -42 38 -62 24 -40 51 -50 51 -20 0 11 -24 39 -52
63 -39 32 -49 37 -37 19z"/>
<path d="M575 134 c-23 -13 -64 -26 -97 -30 -51 -6 -58 -9 -58 -29 0 -21 3
-22 94 -21 l94 1 6 49 c3 28 4 51 3 52 -1 1 -20 -8 -42 -22z"/>
</g>
</svg>
