<?xml version="1.0" standalone="no"?>
<!DOCTYPE svg PUBLIC "-//W3C//DTD SVG 20010904//EN"
 "http://www.w3.org/TR/2001/REC-SVG-20010904/DTD/svg10.dtd">
<svg version="1.0" xmlns="http://www.w3.org/2000/svg"
 width="100.000000pt" height="100.000000pt" viewBox="0 0 100.000000 100.000000"
 preserveAspectRatio="xMidYMid meet">

<g transform="translate(0.000000,100.000000) scale(0.100000,-0.100000)"
fill="#000000" stroke="none">
<path d="M599 971 c-73 -46 -120 -141 -85 -170 13 -11 22 -11 45 -1 71 29 150
150 121 185 -17 21 -30 19 -81 -14z"/>
<path d="M285 759 c-47 -13 -101 -64 -129 -121 -54 -107 -24 -303 65 -437 73
-110 124 -134 210 -102 68 26 102 26 183 0 62 -20 65 -20 101 -3 58 27 155
161 155 213 0 13 -15 30 -41 46 -96 61 -104 213 -15 294 36 34 33 56 -15 88
-55 36 -127 42 -197 14 -66 -26 -98 -26 -162 -1 -53 21 -105 24 -155 9z"/>
</g>
</svg>
