<svg width="957" height="214" viewBox="0 0 957 214" fill="none" xmlns="http://www.w3.org/2000/svg">
<g filter="url(#filter0_ngn_79_13)">
<mask id="path-1-outside-1_79_13" maskUnits="userSpaceOnUse" x="9.40601" y="9.448" width="937" height="194" fill="black">
<rect fill="white" x="9.40601" y="9.448" width="937" height="194"/>
<path d="M12.3 158.82C12.3 156.156 12.855 154.269 13.965 153.159C15.075 152.049 16.185 151.494 17.295 151.494C18.183 151.494 19.071 151.827 19.959 152.493C21.069 152.937 22.401 153.714 23.955 154.824C27.063 156.822 31.392 159.153 36.942 161.817C42.492 164.259 49.707 165.48 58.587 165.48C63.027 165.48 66.246 164.814 68.244 163.482C70.242 161.928 71.241 160.263 71.241 158.487C71.241 156.045 69.354 154.047 65.58 152.493C62.028 150.717 57.477 149.052 51.927 147.498C46.599 145.722 41.16 143.391 35.61 140.505C30.06 137.397 25.398 133.29 21.624 128.184C18.072 122.856 16.296 115.974 16.296 107.538C16.296 97.548 18.738 89.445 23.622 83.229C28.506 77.013 34.722 72.462 42.27 69.576C50.04 66.69 57.921 65.247 65.913 65.247C72.351 65.247 78.345 65.802 83.895 66.912C89.445 68.022 93.996 69.243 97.548 70.575C103.986 73.461 108.315 77.013 110.535 81.231C112.755 85.227 112.644 91.11 110.202 98.88L107.871 106.539C107.205 108.315 106.206 109.203 104.874 109.203C103.986 109.203 103.209 109.092 102.543 108.87C101.877 108.426 101.1 108.093 100.212 107.871C89.334 103.209 79.122 100.878 69.576 100.878C66.246 100.878 63.915 101.433 62.583 102.543C61.473 103.653 60.918 104.874 60.918 106.206C60.918 108.87 62.694 111.09 66.246 112.866C70.02 114.42 74.571 116.085 79.899 117.861C85.449 119.637 90.999 121.968 96.549 124.854C102.099 127.74 106.65 131.625 110.202 136.509C113.976 141.393 115.863 147.831 115.863 155.823C115.863 168.921 111.312 179.688 102.21 188.124C93.108 196.56 81.009 200.778 65.913 200.778C55.923 200.778 46.821 198.891 38.607 195.117C30.615 191.121 24.177 185.904 19.293 179.466C14.631 173.028 12.3 166.146 12.3 158.82ZM148.794 107.871H127.815C124.929 107.871 123.486 106.428 123.486 103.542V73.239C123.486 70.353 124.929 68.91 127.815 68.91H148.794V28.95C148.794 26.286 150.126 24.954 152.79 24.954H160.449C170.883 24.954 178.875 27.396 184.425 32.28C189.975 36.942 192.75 45.156 192.75 56.922V68.91H218.724C221.388 68.91 222.72 70.353 222.72 73.239V103.542C222.72 106.428 221.388 107.871 218.724 107.871H192.75V193.119C192.75 196.005 191.196 197.448 188.088 197.448H152.79C150.126 197.448 148.794 196.005 148.794 193.119V107.871ZM301.133 200.445C280.265 200.445 263.726 194.229 251.516 181.797C239.528 169.143 233.534 152.715 233.534 132.513C233.534 112.089 239.528 95.772 251.516 83.562C263.504 71.352 279.821 65.247 300.467 65.247C321.113 65.247 337.43 71.463 349.418 83.895C361.628 96.105 367.733 112.422 367.733 132.846C367.733 153.048 361.739 169.365 349.751 181.797C337.985 194.229 321.779 200.445 301.133 200.445ZM300.467 161.151C306.905 161.151 312.233 159.042 316.451 154.824C320.669 150.606 322.778 143.391 322.778 133.179C322.778 122.745 320.558 115.419 316.118 111.201C311.9 106.983 306.794 104.874 300.8 104.874C294.584 104.874 289.256 106.983 284.816 111.201C280.598 115.419 278.489 122.745 278.489 133.179C278.489 143.391 280.598 150.606 284.816 154.824C289.034 159.042 294.251 161.151 300.467 161.151ZM475.009 188.124C471.013 191.676 466.351 194.562 461.023 196.782C455.917 199.002 449.923 200.112 443.041 200.112C430.165 200.112 419.287 197.115 410.407 191.121C401.749 184.905 395.2 176.691 390.76 166.479C386.32 156.045 384.1 144.612 384.1 132.18C384.1 119.526 386.431 108.204 391.093 98.214C395.977 88.002 402.859 80.01 411.739 74.238C420.841 68.244 431.497 65.247 443.707 65.247C460.135 65.247 472.9 70.131 482.002 79.899C484.444 75.903 487.996 73.128 492.658 71.574C497.32 69.798 502.87 68.91 509.308 68.91H514.969C517.855 68.91 519.298 70.353 519.298 73.239V193.119C519.298 196.005 517.855 197.448 514.969 197.448H479.338C476.452 197.448 475.009 196.005 475.009 193.119V188.124ZM453.031 159.486C455.473 159.486 458.359 158.931 461.689 157.821C465.241 156.489 468.349 153.936 471.013 150.162C473.677 146.166 475.009 140.283 475.009 132.513C475.009 124.743 473.677 119.082 471.013 115.53C468.349 111.978 465.241 109.647 461.689 108.537C458.359 107.427 455.473 106.872 453.031 106.872C450.811 106.872 447.814 107.427 444.04 108.537C440.266 109.647 436.936 111.978 434.05 115.53C431.164 119.082 429.721 124.743 429.721 132.513C429.721 140.283 431.164 146.166 434.05 150.162C436.936 153.936 440.155 156.489 443.707 157.821C447.481 158.931 450.589 159.486 453.031 159.486ZM558.214 107.871H537.235C534.349 107.871 532.906 106.428 532.906 103.542V73.239C532.906 70.353 534.349 68.91 537.235 68.91H558.214V28.95C558.214 26.286 559.546 24.954 562.21 24.954H569.869C580.303 24.954 588.295 27.396 593.845 32.28C599.395 36.942 602.17 45.156 602.17 56.922V68.91H628.144C630.808 68.91 632.14 70.353 632.14 73.239V103.542C632.14 106.428 630.808 107.871 628.144 107.871H602.17V193.119C602.17 196.005 600.616 197.448 597.508 197.448H562.21C559.546 197.448 558.214 196.005 558.214 193.119V107.871ZM645.905 36.276C645.905 29.838 648.236 24.288 652.898 19.626C657.56 14.742 663.221 12.3 669.881 12.3C676.541 12.3 682.091 14.742 686.531 19.626C691.193 24.288 693.524 29.838 693.524 36.276C693.524 42.936 691.193 48.597 686.531 53.259C682.091 57.921 676.541 60.252 669.881 60.252C663.221 60.252 657.56 57.921 652.898 53.259C648.236 48.597 645.905 42.936 645.905 36.276ZM648.569 193.119V73.239C648.569 70.353 650.012 68.91 652.898 68.91H660.557C671.213 68.91 679.205 71.463 684.533 76.569C690.083 81.453 692.858 89.778 692.858 101.544V193.119C692.858 196.005 691.304 197.448 688.196 197.448H652.898C650.012 197.448 648.569 196.005 648.569 193.119ZM775.476 200.445C756.606 200.445 741.399 194.562 729.855 182.796C718.533 170.808 712.872 154.158 712.872 132.846C712.872 111.756 718.977 95.217 731.187 83.229C743.619 71.241 759.714 65.247 779.472 65.247C784.8 65.247 789.684 65.691 794.124 66.579C798.786 67.245 803.004 68.244 806.778 69.576C813.438 71.796 817.656 75.126 819.432 79.566C821.43 84.006 821.541 90.111 819.765 97.881L816.435 110.535C815.547 112.755 814.548 113.865 813.438 113.865C812.772 113.865 811.551 113.532 809.775 112.866C804.891 110.424 800.451 108.759 796.455 107.871C792.681 106.761 788.019 106.206 782.469 106.206C776.253 106.206 770.703 108.426 765.819 112.866C760.935 117.084 758.493 124.077 758.493 133.845C758.493 142.503 760.713 149.496 765.153 154.824C769.815 160.152 776.808 162.816 786.132 162.816C792.57 162.816 798.009 161.928 802.449 160.152C807.111 158.154 810.663 156.267 813.105 154.491C815.325 152.937 817.212 152.16 818.766 152.16C820.542 152.16 821.763 152.826 822.429 154.158C823.317 155.49 823.761 156.933 823.761 158.487C823.761 170.697 819.21 180.798 810.108 188.79C801.228 196.56 789.684 200.445 775.476 200.445ZM895.473 200.445C876.603 200.445 861.396 194.562 849.852 182.796C838.53 170.808 832.869 154.158 832.869 132.846C832.869 111.756 838.974 95.217 851.184 83.229C863.616 71.241 879.711 65.247 899.469 65.247C904.797 65.247 909.681 65.691 914.121 66.579C918.783 67.245 923.001 68.244 926.775 69.576C933.435 71.796 937.653 75.126 939.429 79.566C941.427 84.006 941.538 90.111 939.762 97.881L936.432 110.535C935.544 112.755 934.545 113.865 933.435 113.865C932.769 113.865 931.548 113.532 929.772 112.866C924.888 110.424 920.448 108.759 916.452 107.871C912.678 106.761 908.016 106.206 902.466 106.206C896.25 106.206 890.7 108.426 885.816 112.866C880.932 117.084 878.49 124.077 878.49 133.845C878.49 142.503 880.71 149.496 885.15 154.824C889.812 160.152 896.805 162.816 906.129 162.816C912.567 162.816 918.006 161.928 922.446 160.152C927.108 158.154 930.66 156.267 933.102 154.491C935.322 152.937 937.209 152.16 938.763 152.16C940.539 152.16 941.76 152.826 942.426 154.158C943.314 155.49 943.758 156.933 943.758 158.487C943.758 170.697 939.207 180.798 930.105 188.79C921.225 196.56 909.681 200.445 895.473 200.445Z"/>
</mask>
<path d="M12.3 158.82C12.3 156.156 12.855 154.269 13.965 153.159C15.075 152.049 16.185 151.494 17.295 151.494C18.183 151.494 19.071 151.827 19.959 152.493C21.069 152.937 22.401 153.714 23.955 154.824C27.063 156.822 31.392 159.153 36.942 161.817C42.492 164.259 49.707 165.48 58.587 165.48C63.027 165.48 66.246 164.814 68.244 163.482C70.242 161.928 71.241 160.263 71.241 158.487C71.241 156.045 69.354 154.047 65.58 152.493C62.028 150.717 57.477 149.052 51.927 147.498C46.599 145.722 41.16 143.391 35.61 140.505C30.06 137.397 25.398 133.29 21.624 128.184C18.072 122.856 16.296 115.974 16.296 107.538C16.296 97.548 18.738 89.445 23.622 83.229C28.506 77.013 34.722 72.462 42.27 69.576C50.04 66.69 57.921 65.247 65.913 65.247C72.351 65.247 78.345 65.802 83.895 66.912C89.445 68.022 93.996 69.243 97.548 70.575C103.986 73.461 108.315 77.013 110.535 81.231C112.755 85.227 112.644 91.11 110.202 98.88L107.871 106.539C107.205 108.315 106.206 109.203 104.874 109.203C103.986 109.203 103.209 109.092 102.543 108.87C101.877 108.426 101.1 108.093 100.212 107.871C89.334 103.209 79.122 100.878 69.576 100.878C66.246 100.878 63.915 101.433 62.583 102.543C61.473 103.653 60.918 104.874 60.918 106.206C60.918 108.87 62.694 111.09 66.246 112.866C70.02 114.42 74.571 116.085 79.899 117.861C85.449 119.637 90.999 121.968 96.549 124.854C102.099 127.74 106.65 131.625 110.202 136.509C113.976 141.393 115.863 147.831 115.863 155.823C115.863 168.921 111.312 179.688 102.21 188.124C93.108 196.56 81.009 200.778 65.913 200.778C55.923 200.778 46.821 198.891 38.607 195.117C30.615 191.121 24.177 185.904 19.293 179.466C14.631 173.028 12.3 166.146 12.3 158.82ZM148.794 107.871H127.815C124.929 107.871 123.486 106.428 123.486 103.542V73.239C123.486 70.353 124.929 68.91 127.815 68.91H148.794V28.95C148.794 26.286 150.126 24.954 152.79 24.954H160.449C170.883 24.954 178.875 27.396 184.425 32.28C189.975 36.942 192.75 45.156 192.75 56.922V68.91H218.724C221.388 68.91 222.72 70.353 222.72 73.239V103.542C222.72 106.428 221.388 107.871 218.724 107.871H192.75V193.119C192.75 196.005 191.196 197.448 188.088 197.448H152.79C150.126 197.448 148.794 196.005 148.794 193.119V107.871ZM301.133 200.445C280.265 200.445 263.726 194.229 251.516 181.797C239.528 169.143 233.534 152.715 233.534 132.513C233.534 112.089 239.528 95.772 251.516 83.562C263.504 71.352 279.821 65.247 300.467 65.247C321.113 65.247 337.43 71.463 349.418 83.895C361.628 96.105 367.733 112.422 367.733 132.846C367.733 153.048 361.739 169.365 349.751 181.797C337.985 194.229 321.779 200.445 301.133 200.445ZM300.467 161.151C306.905 161.151 312.233 159.042 316.451 154.824C320.669 150.606 322.778 143.391 322.778 133.179C322.778 122.745 320.558 115.419 316.118 111.201C311.9 106.983 306.794 104.874 300.8 104.874C294.584 104.874 289.256 106.983 284.816 111.201C280.598 115.419 278.489 122.745 278.489 133.179C278.489 143.391 280.598 150.606 284.816 154.824C289.034 159.042 294.251 161.151 300.467 161.151ZM475.009 188.124C471.013 191.676 466.351 194.562 461.023 196.782C455.917 199.002 449.923 200.112 443.041 200.112C430.165 200.112 419.287 197.115 410.407 191.121C401.749 184.905 395.2 176.691 390.76 166.479C386.32 156.045 384.1 144.612 384.1 132.18C384.1 119.526 386.431 108.204 391.093 98.214C395.977 88.002 402.859 80.01 411.739 74.238C420.841 68.244 431.497 65.247 443.707 65.247C460.135 65.247 472.9 70.131 482.002 79.899C484.444 75.903 487.996 73.128 492.658 71.574C497.32 69.798 502.87 68.91 509.308 68.91H514.969C517.855 68.91 519.298 70.353 519.298 73.239V193.119C519.298 196.005 517.855 197.448 514.969 197.448H479.338C476.452 197.448 475.009 196.005 475.009 193.119V188.124ZM453.031 159.486C455.473 159.486 458.359 158.931 461.689 157.821C465.241 156.489 468.349 153.936 471.013 150.162C473.677 146.166 475.009 140.283 475.009 132.513C475.009 124.743 473.677 119.082 471.013 115.53C468.349 111.978 465.241 109.647 461.689 108.537C458.359 107.427 455.473 106.872 453.031 106.872C450.811 106.872 447.814 107.427 444.04 108.537C440.266 109.647 436.936 111.978 434.05 115.53C431.164 119.082 429.721 124.743 429.721 132.513C429.721 140.283 431.164 146.166 434.05 150.162C436.936 153.936 440.155 156.489 443.707 157.821C447.481 158.931 450.589 159.486 453.031 159.486ZM558.214 107.871H537.235C534.349 107.871 532.906 106.428 532.906 103.542V73.239C532.906 70.353 534.349 68.91 537.235 68.91H558.214V28.95C558.214 26.286 559.546 24.954 562.21 24.954H569.869C580.303 24.954 588.295 27.396 593.845 32.28C599.395 36.942 602.17 45.156 602.17 56.922V68.91H628.144C630.808 68.91 632.14 70.353 632.14 73.239V103.542C632.14 106.428 630.808 107.871 628.144 107.871H602.17V193.119C602.17 196.005 600.616 197.448 597.508 197.448H562.21C559.546 197.448 558.214 196.005 558.214 193.119V107.871ZM645.905 36.276C645.905 29.838 648.236 24.288 652.898 19.626C657.56 14.742 663.221 12.3 669.881 12.3C676.541 12.3 682.091 14.742 686.531 19.626C691.193 24.288 693.524 29.838 693.524 36.276C693.524 42.936 691.193 48.597 686.531 53.259C682.091 57.921 676.541 60.252 669.881 60.252C663.221 60.252 657.56 57.921 652.898 53.259C648.236 48.597 645.905 42.936 645.905 36.276ZM648.569 193.119V73.239C648.569 70.353 650.012 68.91 652.898 68.91H660.557C671.213 68.91 679.205 71.463 684.533 76.569C690.083 81.453 692.858 89.778 692.858 101.544V193.119C692.858 196.005 691.304 197.448 688.196 197.448H652.898C650.012 197.448 648.569 196.005 648.569 193.119ZM775.476 200.445C756.606 200.445 741.399 194.562 729.855 182.796C718.533 170.808 712.872 154.158 712.872 132.846C712.872 111.756 718.977 95.217 731.187 83.229C743.619 71.241 759.714 65.247 779.472 65.247C784.8 65.247 789.684 65.691 794.124 66.579C798.786 67.245 803.004 68.244 806.778 69.576C813.438 71.796 817.656 75.126 819.432 79.566C821.43 84.006 821.541 90.111 819.765 97.881L816.435 110.535C815.547 112.755 814.548 113.865 813.438 113.865C812.772 113.865 811.551 113.532 809.775 112.866C804.891 110.424 800.451 108.759 796.455 107.871C792.681 106.761 788.019 106.206 782.469 106.206C776.253 106.206 770.703 108.426 765.819 112.866C760.935 117.084 758.493 124.077 758.493 133.845C758.493 142.503 760.713 149.496 765.153 154.824C769.815 160.152 776.808 162.816 786.132 162.816C792.57 162.816 798.009 161.928 802.449 160.152C807.111 158.154 810.663 156.267 813.105 154.491C815.325 152.937 817.212 152.16 818.766 152.16C820.542 152.16 821.763 152.826 822.429 154.158C823.317 155.49 823.761 156.933 823.761 158.487C823.761 170.697 819.21 180.798 810.108 188.79C801.228 196.56 789.684 200.445 775.476 200.445ZM895.473 200.445C876.603 200.445 861.396 194.562 849.852 182.796C838.53 170.808 832.869 154.158 832.869 132.846C832.869 111.756 838.974 95.217 851.184 83.229C863.616 71.241 879.711 65.247 899.469 65.247C904.797 65.247 909.681 65.691 914.121 66.579C918.783 67.245 923.001 68.244 926.775 69.576C933.435 71.796 937.653 75.126 939.429 79.566C941.427 84.006 941.538 90.111 939.762 97.881L936.432 110.535C935.544 112.755 934.545 113.865 933.435 113.865C932.769 113.865 931.548 113.532 929.772 112.866C924.888 110.424 920.448 108.759 916.452 107.871C912.678 106.761 908.016 106.206 902.466 106.206C896.25 106.206 890.7 108.426 885.816 112.866C880.932 117.084 878.49 124.077 878.49 133.845C878.49 142.503 880.71 149.496 885.15 154.824C889.812 160.152 896.805 162.816 906.129 162.816C912.567 162.816 918.006 161.928 922.446 160.152C927.108 158.154 930.66 156.267 933.102 154.491C935.322 152.937 937.209 152.16 938.763 152.16C940.539 152.16 941.76 152.826 942.426 154.158C943.314 155.49 943.758 156.933 943.758 158.487C943.758 170.697 939.207 180.798 930.105 188.79C921.225 196.56 909.681 200.445 895.473 200.445Z" fill="white"/>
<path d="M13.965 153.159L15.3792 154.573L15.3792 154.573L13.965 153.159ZM19.959 152.493L18.759 154.093L18.9706 154.252L19.2162 154.35L19.959 152.493ZM23.955 154.824L22.7925 156.451L22.8323 156.48L22.8734 156.506L23.955 154.824ZM36.942 161.817L36.0765 163.62L36.1063 163.634L36.1365 163.648L36.942 161.817ZM68.244 163.482L69.3534 165.146L69.4142 165.106L69.4718 165.061L68.244 163.482ZM65.58 152.493L64.6855 154.282L64.7509 154.315L64.8185 154.342L65.58 152.493ZM51.927 147.498L51.2945 149.395L51.3408 149.411L51.3877 149.424L51.927 147.498ZM35.61 140.505L34.6328 142.25L34.6598 142.265L34.6873 142.279L35.61 140.505ZM21.624 128.184L19.9599 129.293L19.9868 129.334L20.0156 129.373L21.624 128.184ZM42.27 69.576L41.5736 67.7011L41.5646 67.7045L41.5557 67.7079L42.27 69.576ZM97.548 70.575L98.3661 68.75L98.3089 68.7243L98.2502 68.7023L97.548 70.575ZM110.535 81.231L108.765 82.1625L108.776 82.1825L108.787 82.2023L110.535 81.231ZM110.202 98.88L108.294 98.2803L108.291 98.289L108.289 98.2977L110.202 98.88ZM107.871 106.539L109.744 107.241L109.766 107.182L109.784 107.121L107.871 106.539ZM102.543 108.87L101.434 110.534L101.656 110.683L101.911 110.767L102.543 108.87ZM100.212 107.871L99.4241 109.709L99.5714 109.772L99.7269 109.811L100.212 107.871ZM62.583 102.543L61.3026 101.007L61.2329 101.065L61.1687 101.129L62.583 102.543ZM66.246 112.866L65.3515 114.655L65.4169 114.688L65.4845 114.715L66.246 112.866ZM79.899 117.861L79.2665 119.758L79.2779 119.762L79.2894 119.766L79.899 117.861ZM96.549 124.854L95.6263 126.628L95.6263 126.628L96.549 124.854ZM110.202 136.509L108.584 137.685L108.602 137.709L108.619 137.732L110.202 136.509ZM102.21 188.124L100.85 186.657L100.85 186.657L102.21 188.124ZM38.607 195.117L37.7125 196.906L37.742 196.921L37.772 196.934L38.607 195.117ZM19.293 179.466L17.6731 180.639L17.6861 180.657L17.6996 180.675L19.293 179.466ZM12.3 158.82H14.3C14.3 156.34 14.8335 155.119 15.3792 154.573L13.965 153.159L12.5508 151.745C10.8764 153.419 10.3 155.972 10.3 158.82H12.3ZM13.965 153.159L15.3792 154.573C16.2712 153.681 16.9025 153.494 17.295 153.494V151.494V149.494C15.4674 149.494 13.8787 150.417 12.5507 151.745L13.965 153.159ZM17.295 151.494V153.494C17.652 153.494 18.1293 153.621 18.759 154.093L19.959 152.493L21.159 150.893C20.0126 150.033 18.714 149.494 17.295 149.494V151.494ZM19.959 152.493L19.2162 154.35C20.1165 154.71 21.3012 155.386 22.7925 156.451L23.955 154.824L25.1174 153.197C23.5007 152.042 22.0214 151.164 20.7017 150.636L19.959 152.493ZM23.955 154.824L22.8734 156.506C26.0814 158.569 30.494 160.94 36.0765 163.62L36.942 161.817L37.8074 160.014C32.2899 157.366 28.0446 155.075 25.0365 153.142L23.955 154.824ZM36.942 161.817L36.1365 163.648C42.0298 166.241 49.5477 167.48 58.587 167.48V165.48V163.48C49.8662 163.48 42.9541 162.277 37.7474 159.986L36.942 161.817ZM58.587 165.48V167.48C63.1342 167.48 66.8495 166.815 69.3534 165.146L68.244 163.482L67.1346 161.818C65.6424 162.813 62.9197 163.48 58.587 163.48V165.48ZM68.244 163.482L69.4718 165.061C71.7393 163.297 73.241 161.112 73.241 158.487H71.241H69.241C69.241 159.414 68.7446 160.559 67.0161 161.903L68.244 163.482ZM71.241 158.487H73.241C73.241 154.768 70.3109 152.278 66.3415 150.644L65.58 152.493L64.8185 154.342C68.3971 155.816 69.241 157.322 69.241 158.487H71.241ZM65.58 152.493L66.4744 150.704C62.7703 148.852 58.0891 147.146 52.4662 145.572L51.927 147.498L51.3877 149.424C56.8648 150.958 61.2856 152.582 64.6855 154.282L65.58 152.493ZM51.927 147.498L52.5594 145.601C47.3418 143.861 41.9997 141.573 36.5327 138.731L35.61 140.505L34.6873 142.279C40.3202 145.209 45.8562 147.583 51.2945 149.395L51.927 147.498ZM35.61 140.505L36.5872 138.76C31.2841 135.79 26.8374 131.873 23.2323 126.995L21.624 128.184L20.0156 129.373C23.9585 134.707 28.8358 139.004 34.6328 142.25L35.61 140.505ZM21.624 128.184L23.2881 127.075C20.0147 122.165 18.296 115.702 18.296 107.538H16.296H14.296C14.296 116.245 16.1292 123.547 19.9599 129.293L21.624 128.184ZM16.296 107.538H18.296C18.296 97.8759 20.6536 90.2441 25.1946 84.4646L23.622 83.229L22.0493 81.9933C16.8224 88.6458 14.296 97.2201 14.296 107.538H16.296ZM23.622 83.229L25.1946 84.4646C29.8498 78.5398 35.7664 74.2039 42.9842 71.4441L42.27 69.576L41.5557 67.7079C33.6775 70.7201 27.1621 75.4862 22.0493 81.9933L23.622 83.229ZM42.27 69.576L42.9663 71.4508C50.5219 68.6445 58.1675 67.247 65.913 67.247V65.247V63.247C57.6745 63.247 49.558 64.7355 41.5736 67.7011L42.27 69.576ZM65.913 65.247V67.247C72.2369 67.247 78.0981 67.7922 83.5027 68.8732L83.895 66.912L84.2872 64.9508C78.5919 63.8118 72.4651 63.247 65.913 63.247V65.247ZM83.895 66.912L83.5027 68.8732C88.9932 69.9712 93.4305 71.167 96.8457 72.4477L97.548 70.575L98.2502 68.7023C94.5614 67.319 89.8967 66.0727 84.2872 64.9508L83.895 66.912ZM97.548 70.575L96.7299 72.4C102.948 75.1874 106.833 78.4908 108.765 82.1625L110.535 81.231L112.305 80.2995C109.797 75.5352 105.024 71.7346 98.3661 68.75L97.548 70.575ZM110.535 81.231L108.787 82.2023C110.595 85.4571 110.69 90.6553 108.294 98.2803L110.202 98.88L112.11 99.4796C114.598 91.5646 114.915 84.9968 112.283 80.2597L110.535 81.231ZM110.202 98.88L108.289 98.2977L105.958 105.957L107.871 106.539L109.784 107.121L112.115 99.4623L110.202 98.88ZM107.871 106.539L105.998 105.837C105.735 106.54 105.47 106.886 105.293 107.042C105.159 107.162 105.048 107.203 104.874 107.203V109.203V111.203C106.032 111.203 107.087 110.8 107.951 110.032C108.774 109.3 109.341 108.314 109.744 107.241L107.871 106.539ZM104.874 109.203V107.203C104.147 107.203 103.592 107.111 103.175 106.973L102.543 108.87L101.911 110.767C102.826 111.073 103.825 111.203 104.874 111.203V109.203ZM102.543 108.87L103.652 107.206C102.77 106.618 101.776 106.2 100.697 105.931L100.212 107.871L99.7269 109.811C100.424 109.986 100.984 110.234 101.434 110.534L102.543 108.87ZM100.212 107.871L101 106.033C89.9308 101.289 79.4494 98.878 69.576 98.878V100.878V102.878C78.7945 102.878 88.7372 105.129 99.4241 109.709L100.212 107.871ZM69.576 100.878V98.878C66.1502 98.878 63.2023 99.4235 61.3026 101.007L62.583 102.543L63.8633 104.079C64.6277 103.442 66.3418 102.878 69.576 102.878V100.878ZM62.583 102.543L61.1687 101.129C59.7557 102.542 58.918 104.25 58.918 106.206H60.918H62.918C62.918 105.498 63.1902 104.764 63.9972 103.957L62.583 102.543ZM60.918 106.206H58.918C58.918 109.969 61.4941 112.726 65.3515 114.655L66.246 112.866L67.1404 111.077C63.8938 109.454 62.918 107.771 62.918 106.206H60.918ZM66.246 112.866L65.4845 114.715C69.3133 116.292 73.9098 117.973 79.2665 119.758L79.899 117.861L80.5314 115.964C75.2321 114.197 70.7266 112.548 67.0075 111.017L66.246 112.866ZM79.899 117.861L79.2894 119.766C84.724 121.505 90.1695 123.791 95.6263 126.628L96.549 124.854L97.4717 123.08C91.8285 120.145 86.174 117.769 80.5085 115.956L79.899 117.861ZM96.549 124.854L95.6263 126.628C100.912 129.377 105.221 133.061 108.584 137.685L110.202 136.509L111.819 135.333C108.079 130.189 103.286 126.103 97.4717 123.08L96.549 124.854ZM110.202 136.509L108.619 137.732C112.052 142.174 113.863 148.142 113.863 155.823H115.863H117.863C117.863 147.52 115.9 140.612 111.785 135.286L110.202 136.509ZM115.863 155.823H113.863C113.863 168.399 109.519 178.623 100.85 186.657L102.21 188.124L103.569 189.591C113.105 180.753 117.863 169.443 117.863 155.823H115.863ZM102.21 188.124L100.85 186.657C92.1947 194.68 80.6197 198.778 65.913 198.778V200.778V202.778C81.3982 202.778 94.0213 198.44 103.569 189.591L102.21 188.124ZM65.913 200.778V198.778C56.1806 198.778 47.3676 196.941 39.442 193.3L38.607 195.117L37.772 196.934C46.2743 200.841 55.6653 202.778 65.913 202.778V200.778ZM38.607 195.117L39.5014 193.328C31.7544 189.455 25.566 184.426 20.8863 178.257L19.293 179.466L17.6996 180.675C22.7879 187.382 29.4755 192.787 37.7125 196.906L38.607 195.117ZM19.293 179.466L20.9128 178.293C16.4758 172.166 14.3 165.688 14.3 158.82H12.3H10.3C10.3 166.604 12.7862 173.89 17.6731 180.639L19.293 179.466ZM148.794 107.871H150.794V105.871H148.794V107.871ZM148.794 68.91V70.91H150.794V68.91H148.794ZM184.425 32.28L183.103 33.7814L183.121 33.7966L183.138 33.8114L184.425 32.28ZM192.75 68.91H190.75V70.91H192.75V68.91ZM192.75 107.871V105.871H190.75V107.871H192.75ZM148.794 107.871V105.871H127.815V107.871V109.871H148.794V107.871ZM127.815 107.871V105.871C126.68 105.871 126.196 105.589 125.982 105.375C125.768 105.16 125.486 104.677 125.486 103.542H123.486H121.486C121.486 105.293 121.925 106.974 123.154 108.203C124.382 109.432 126.063 109.871 127.815 109.871V107.871ZM123.486 103.542H125.486V73.239H123.486H121.486V103.542H123.486ZM123.486 73.239H125.486C125.486 72.1043 125.768 71.6206 125.982 71.4065C126.196 71.1923 126.68 70.91 127.815 70.91V68.91V66.91C126.063 66.91 124.382 67.3492 123.154 68.578C121.925 69.8069 121.486 71.4877 121.486 73.239H123.486ZM127.815 68.91V70.91H148.794V68.91V66.91H127.815V68.91ZM148.794 68.91H150.794V28.95H148.794H146.794V68.91H148.794ZM148.794 28.95H150.794C150.794 27.9263 151.048 27.5258 151.207 27.3672C151.365 27.2086 151.766 26.954 152.79 26.954V24.954V22.954C151.149 22.954 149.552 23.3654 148.378 24.5388C147.205 25.7121 146.794 27.3097 146.794 28.95H148.794ZM152.79 24.954V26.954H160.449V24.954V22.954H152.79V24.954ZM160.449 24.954V26.954C170.595 26.954 178.044 29.3294 183.103 33.7814L184.425 32.28L185.746 30.7786C179.705 25.4626 171.17 22.954 160.449 22.954V24.954ZM184.425 32.28L183.138 33.8114C188.017 37.9098 190.75 45.3847 190.75 56.922H192.75H194.75C194.75 44.9273 191.932 35.9742 185.711 30.7486L184.425 32.28ZM192.75 56.922H190.75V68.91H192.75H194.75V56.922H192.75ZM192.75 68.91V70.91H218.724V68.91V66.91H192.75V68.91ZM218.724 68.91V70.91C219.704 70.91 220.084 71.1682 220.251 71.3488C220.446 71.5597 220.72 72.0663 220.72 73.239H222.72H224.72C224.72 71.5257 224.327 69.8678 223.19 68.6357C222.025 67.3733 220.407 66.91 218.724 66.91V68.91ZM222.72 73.239H220.72V103.542H222.72H224.72V73.239H222.72ZM222.72 103.542H220.72C220.72 104.715 220.446 105.221 220.251 105.432C220.084 105.613 219.704 105.871 218.724 105.871V107.871V109.871C220.407 109.871 222.025 109.408 223.19 108.145C224.327 106.913 224.72 105.255 224.72 103.542H222.72ZM218.724 107.871V105.871H192.75V107.871V109.871H218.724V107.871ZM192.75 107.871H190.75V193.119H192.75H194.75V107.871H192.75ZM192.75 193.119H190.75C190.75 194.214 190.462 194.679 190.223 194.9C189.957 195.148 189.369 195.448 188.088 195.448V197.448V199.448C189.915 199.448 191.657 199.027 192.945 197.831C194.26 196.61 194.75 194.91 194.75 193.119H192.75ZM188.088 197.448V195.448H152.79V197.448V199.448H188.088V197.448ZM152.79 197.448V195.448C151.809 195.448 151.429 195.19 151.262 195.009C151.067 194.798 150.794 194.292 150.794 193.119H148.794H146.794C146.794 194.832 147.186 196.49 148.323 197.722C149.488 198.985 151.106 199.448 152.79 199.448V197.448ZM148.794 193.119H150.794V107.871H148.794H146.794V193.119H148.794ZM251.516 181.797L250.064 183.172L250.077 183.186L250.089 183.198L251.516 181.797ZM251.516 83.562L252.943 84.9632L252.943 84.9632L251.516 83.562ZM349.418 83.895L347.979 85.2833L347.991 85.2963L348.004 85.3092L349.418 83.895ZM349.751 181.797L348.312 180.409L348.305 180.415L348.299 180.422L349.751 181.797ZM316.451 154.824L315.037 153.41L315.037 153.41L316.451 154.824ZM316.118 111.201L314.704 112.615L314.722 112.633L314.741 112.651L316.118 111.201ZM284.816 111.201L283.439 109.751L283.42 109.769L283.402 109.787L284.816 111.201ZM284.816 154.824L283.402 156.238L283.402 156.238L284.816 154.824ZM301.133 200.445V198.445C280.688 198.445 264.704 192.37 252.943 180.396L251.516 181.797L250.089 183.198C262.748 196.088 279.842 202.445 301.133 202.445V200.445ZM251.516 181.797L252.968 180.422C241.388 168.198 235.534 152.291 235.534 132.513H233.534H231.534C231.534 153.139 237.669 170.088 250.064 183.172L251.516 181.797ZM233.534 132.513H235.534C235.534 112.505 241.392 96.7284 252.943 84.9632L251.516 83.562L250.089 82.1608C237.664 94.8156 231.534 111.673 231.534 132.513H233.534ZM251.516 83.562L252.943 84.9632C264.479 73.2134 280.239 67.247 300.467 67.247V65.247V63.247C279.403 63.247 262.529 69.4906 250.089 82.1608L251.516 83.562ZM300.467 65.247V67.247C320.685 67.247 336.44 73.3175 347.979 85.2833L349.418 83.895L350.858 82.5067C338.42 69.6085 321.542 63.247 300.467 63.247V65.247ZM349.418 83.895L348.004 85.3092C359.771 97.0763 365.733 112.848 365.733 132.846H367.733H369.733C369.733 111.996 363.485 95.1336 350.832 82.4808L349.418 83.895ZM367.733 132.846H365.733C365.733 152.624 359.88 168.412 348.312 180.409L349.751 181.797L351.191 183.185C363.599 170.318 369.733 153.472 369.733 132.846H367.733ZM349.751 181.797L348.299 180.422C336.987 192.374 321.352 198.445 301.133 198.445V200.445V202.445C322.207 202.445 338.984 196.084 351.204 183.172L349.751 181.797ZM300.467 161.151V163.151C307.389 163.151 313.241 160.863 317.865 156.238L316.451 154.824L315.037 153.41C311.226 157.221 306.421 159.151 300.467 159.151V161.151ZM316.451 154.824L317.865 156.238C322.65 151.453 324.778 143.569 324.778 133.179H322.778H320.778C320.778 143.213 318.688 149.759 315.037 153.41L316.451 154.824ZM322.778 133.179H324.778C324.778 122.561 322.537 114.54 317.496 109.751L316.118 111.201L314.741 112.651C318.58 116.298 320.778 122.929 320.778 133.179H322.778ZM316.118 111.201L317.532 109.787C312.937 105.192 307.322 102.874 300.8 102.874V104.874V106.874C306.267 106.874 310.863 108.774 314.704 112.615L316.118 111.201ZM300.8 104.874V102.874C294.08 102.874 288.257 105.174 283.439 109.751L284.816 111.201L286.194 112.651C290.256 108.792 295.088 106.874 300.8 106.874V104.874ZM284.816 111.201L283.402 109.787C278.611 114.578 276.489 122.582 276.489 133.179H278.489H280.489C280.489 122.908 282.585 116.26 286.23 112.615L284.816 111.201ZM278.489 133.179H276.489C276.489 143.569 278.617 151.453 283.402 156.238L284.816 154.824L286.23 153.41C282.579 149.759 280.489 143.213 280.489 133.179H278.489ZM284.816 154.824L283.402 156.238C288.012 160.849 293.746 163.151 300.467 163.151V161.151V159.151C294.757 159.151 290.056 157.235 286.23 153.41L284.816 154.824ZM475.009 188.124H477.009V183.67L473.68 186.629L475.009 188.124ZM461.023 196.782L460.253 194.936L460.239 194.942L460.225 194.948L461.023 196.782ZM410.407 191.121L409.24 192.746L409.264 192.763L409.288 192.779L410.407 191.121ZM390.76 166.479L388.919 167.262L388.922 167.269L388.926 167.276L390.76 166.479ZM391.093 98.214L389.288 97.3511L389.284 97.3596L389.28 97.3682L391.093 98.214ZM411.739 74.238L412.829 75.9149L412.839 75.9083L411.739 74.238ZM482.002 79.899L480.538 81.2624L482.334 83.1899L483.708 80.9419L482.002 79.899ZM492.658 71.574L493.29 73.4714L493.33 73.458L493.37 73.443L492.658 71.574ZM461.689 157.821L462.321 159.718L462.356 159.707L462.391 159.694L461.689 157.821ZM471.013 150.162L472.647 151.315L472.662 151.294L472.677 151.271L471.013 150.162ZM471.013 115.53L472.613 114.33L472.613 114.33L471.013 115.53ZM461.689 108.537L461.056 110.434L461.074 110.44L461.092 110.446L461.689 108.537ZM434.05 115.53L435.602 116.791L435.602 116.791L434.05 115.53ZM434.05 150.162L432.428 151.333L432.444 151.355L432.461 151.377L434.05 150.162ZM443.707 157.821L443.004 159.694L443.073 159.719L443.142 159.74L443.707 157.821ZM475.009 188.124L473.68 186.629C469.862 190.023 465.393 192.794 460.253 194.936L461.023 196.782L461.792 198.628C467.308 196.33 472.163 193.329 476.337 189.619L475.009 188.124ZM461.023 196.782L460.225 194.948C455.423 197.036 449.711 198.112 443.041 198.112V200.112V202.112C450.134 202.112 456.411 200.968 461.82 198.616L461.023 196.782ZM443.041 200.112V198.112C430.482 198.112 420.013 195.192 411.526 189.463L410.407 191.121L409.288 192.779C418.56 199.038 429.848 202.112 443.041 202.112V200.112ZM410.407 191.121L411.573 189.496C403.222 183.5 396.897 175.578 392.594 165.682L390.76 166.479L388.926 167.276C393.503 177.804 400.276 186.31 409.24 192.746L410.407 191.121ZM390.76 166.479L392.6 165.696C388.275 155.532 386.1 144.369 386.1 132.18H384.1H382.1C382.1 144.855 384.364 156.558 388.919 167.262L390.76 166.479ZM384.1 132.18H386.1C386.1 119.775 388.384 108.748 392.905 99.0598L391.093 98.214L389.28 97.3682C384.478 107.66 382.1 119.277 382.1 132.18H384.1ZM391.093 98.214L392.897 99.0769C397.634 89.173 404.278 81.4725 412.829 75.9149L411.739 74.238L410.649 72.5611C401.439 78.5475 394.32 86.831 389.288 97.3511L391.093 98.214ZM411.739 74.238L412.839 75.9083C421.576 70.1547 431.839 67.247 443.707 67.247V65.247V63.247C431.154 63.247 420.106 66.3333 410.639 72.5677L411.739 74.238ZM443.707 65.247V67.247C459.717 67.247 471.899 71.991 480.538 81.2624L482.002 79.899L483.465 78.5355C473.9 68.271 460.552 63.247 443.707 63.247V65.247ZM482.002 79.899L483.708 80.9419C485.891 77.3695 489.052 74.8841 493.29 73.4714L492.658 71.574L492.025 69.6766C486.94 71.3718 482.996 74.4364 480.295 78.8561L482.002 79.899ZM492.658 71.574L493.37 73.443C497.749 71.7747 503.046 70.91 509.308 70.91V68.91V66.91C502.694 66.91 496.89 67.8213 491.946 69.705L492.658 71.574ZM509.308 68.91V70.91H514.969V68.91V66.91H509.308V68.91ZM514.969 68.91V70.91C516.103 70.91 516.587 71.1923 516.801 71.4065C517.015 71.6206 517.298 72.1043 517.298 73.239H519.298H521.298C521.298 71.4877 520.858 69.8069 519.63 68.578C518.401 67.3492 516.72 66.91 514.969 66.91V68.91ZM519.298 73.239H517.298V193.119H519.298H521.298V73.239H519.298ZM519.298 193.119H517.298C517.298 194.254 517.015 194.737 516.801 194.952C516.587 195.166 516.103 195.448 514.969 195.448V197.448V199.448C516.72 199.448 518.401 199.009 519.63 197.78C520.858 196.551 521.298 194.87 521.298 193.119H519.298ZM514.969 197.448V195.448H479.338V197.448V199.448H514.969V197.448ZM479.338 197.448V195.448C478.203 195.448 477.719 195.166 477.505 194.952C477.291 194.737 477.009 194.254 477.009 193.119H475.009H473.009C473.009 194.87 473.448 196.551 474.677 197.78C475.906 199.009 477.586 199.448 479.338 199.448V197.448ZM475.009 193.119H477.009V188.124H475.009H473.009V193.119H475.009ZM453.031 159.486V161.486C455.759 161.486 458.868 160.869 462.321 159.718L461.689 157.821L461.056 155.924C457.849 156.993 455.186 157.486 453.031 157.486V159.486ZM461.689 157.821L462.391 159.694C466.394 158.193 469.802 155.345 472.647 151.315L471.013 150.162L469.379 149.009C466.895 152.527 464.088 154.785 460.986 155.948L461.689 157.821ZM471.013 150.162L472.677 151.271C475.657 146.801 477.009 140.456 477.009 132.513H475.009H473.009C473.009 140.11 471.696 145.531 469.349 149.053L471.013 150.162ZM475.009 132.513H477.009C477.009 124.599 475.668 118.404 472.613 114.33L471.013 115.53L469.413 116.73C471.685 119.76 473.009 124.887 473.009 132.513H475.009ZM471.013 115.53L472.613 114.33C469.747 110.509 466.31 107.886 462.285 106.628L461.689 108.537L461.092 110.446C464.171 111.408 466.951 113.447 469.413 116.73L471.013 115.53ZM461.689 108.537L462.321 106.64C458.868 105.489 455.759 104.872 453.031 104.872V106.872V108.872C455.186 108.872 457.849 109.365 461.056 110.434L461.689 108.537ZM453.031 106.872V104.872C450.527 104.872 447.315 105.489 443.475 106.618L444.04 108.537L444.604 110.456C448.313 109.365 451.095 108.872 453.031 108.872V106.872ZM444.04 108.537L443.475 106.618C439.253 107.86 435.596 110.455 432.497 114.269L434.05 115.53L435.602 116.791C438.276 113.5 441.279 111.434 444.604 110.456L444.04 108.537ZM434.05 115.53L432.497 114.269C429.18 118.352 427.721 124.576 427.721 132.513H429.721H431.721C431.721 124.91 433.148 119.812 435.602 116.791L434.05 115.53ZM429.721 132.513H427.721C427.721 140.479 429.191 146.851 432.428 151.333L434.05 150.162L435.671 148.991C433.136 145.481 431.721 140.087 431.721 132.513H429.721ZM434.05 150.162L432.461 151.377C435.518 155.374 439.022 158.2 443.004 159.694L443.707 157.821L444.409 155.948C441.287 154.778 438.354 152.498 435.638 148.947L434.05 150.162ZM443.707 157.821L443.142 159.74C447.002 160.875 450.318 161.486 453.031 161.486V159.486V157.486C450.86 157.486 447.959 156.987 444.271 155.902L443.707 157.821ZM558.214 107.871H560.214V105.871H558.214V107.871ZM558.214 68.91V70.91H560.214V68.91H558.214ZM593.845 32.28L592.524 33.7814L592.541 33.7966L592.559 33.8114L593.845 32.28ZM602.17 68.91H600.17V70.91H602.17V68.91ZM602.17 107.871V105.871H600.17V107.871H602.17ZM558.214 107.871V105.871H537.235V107.871V109.871H558.214V107.871ZM537.235 107.871V105.871C536.101 105.871 535.617 105.589 535.403 105.375C535.189 105.16 534.906 104.677 534.906 103.542H532.906H530.906C530.906 105.293 531.346 106.974 532.574 108.203C533.803 109.432 535.484 109.871 537.235 109.871V107.871ZM532.906 103.542H534.906V73.239H532.906H530.906V103.542H532.906ZM532.906 73.239H534.906C534.906 72.1043 535.189 71.6206 535.403 71.4065C535.617 71.1923 536.101 70.91 537.235 70.91V68.91V66.91C535.484 66.91 533.803 67.3492 532.574 68.578C531.346 69.8069 530.906 71.4877 530.906 73.239H532.906ZM537.235 68.91V70.91H558.214V68.91V66.91H537.235V68.91ZM558.214 68.91H560.214V28.95H558.214H556.214V68.91H558.214ZM558.214 28.95H560.214C560.214 27.9263 560.469 27.5258 560.628 27.3672C560.786 27.2086 561.187 26.954 562.21 26.954V24.954V22.954C560.57 22.954 558.973 23.3654 557.799 24.5388C556.626 25.7121 556.214 27.3097 556.214 28.95H558.214ZM562.21 24.954V26.954H569.869V24.954V22.954H562.21V24.954ZM569.869 24.954V26.954C580.016 26.954 587.465 29.3294 592.524 33.7814L593.845 32.28L595.167 30.7786C589.126 25.4626 580.591 22.954 569.869 22.954V24.954ZM593.845 32.28L592.559 33.8114C597.438 37.9098 600.17 45.3847 600.17 56.922H602.17H604.17C604.17 44.9273 601.353 35.9742 595.132 30.7486L593.845 32.28ZM602.17 56.922H600.17V68.91H602.17H604.17V56.922H602.17ZM602.17 68.91V70.91H628.144V68.91V66.91H602.17V68.91ZM628.144 68.91V70.91C629.125 70.91 629.505 71.1682 629.672 71.3488C629.866 71.5597 630.14 72.0663 630.14 73.239H632.14H634.14C634.14 71.5257 633.748 69.8678 632.611 68.6357C631.446 67.3733 629.828 66.91 628.144 66.91V68.91ZM632.14 73.239H630.14V103.542H632.14H634.14V73.239H632.14ZM632.14 103.542H630.14C630.14 104.715 629.866 105.221 629.672 105.432C629.505 105.613 629.125 105.871 628.144 105.871V107.871V109.871C629.828 109.871 631.446 109.408 632.611 108.145C633.748 106.913 634.14 105.255 634.14 103.542H632.14ZM628.144 107.871V105.871H602.17V107.871V109.871H628.144V107.871ZM602.17 107.871H600.17V193.119H602.17H604.17V107.871H602.17ZM602.17 193.119H600.17C600.17 194.214 599.883 194.679 599.644 194.9C599.378 195.148 598.789 195.448 597.508 195.448V197.448V199.448C599.335 199.448 601.078 199.027 602.366 197.831C603.681 196.61 604.17 194.91 604.17 193.119H602.17ZM597.508 197.448V195.448H562.21V197.448V199.448H597.508V197.448ZM562.21 197.448V195.448C561.23 195.448 560.85 195.19 560.683 195.009C560.488 194.798 560.214 194.292 560.214 193.119H558.214H556.214C556.214 194.832 556.606 196.49 557.744 197.722C558.909 198.985 560.527 199.448 562.21 199.448V197.448ZM558.214 193.119H560.214V107.871H558.214H556.214V193.119H558.214ZM652.898 19.626L654.313 21.0402L654.329 21.0238L654.345 21.0069L652.898 19.626ZM686.531 19.626L685.051 20.9713L685.083 21.0065L685.117 21.0402L686.531 19.626ZM686.531 53.259L685.117 51.8448L685.1 51.862L685.083 51.8797L686.531 53.259ZM652.898 53.259L651.484 54.6732L651.484 54.6732L652.898 53.259ZM684.533 76.569L683.149 78.013L683.18 78.0424L683.212 78.0704L684.533 76.569ZM645.905 36.276H647.905C647.905 30.3826 650.015 25.3373 654.313 21.0402L652.898 19.626L651.484 18.2118C646.457 23.2387 643.905 29.2934 643.905 36.276H645.905ZM652.898 19.626L654.345 21.0069C658.636 16.5121 663.776 14.3 669.881 14.3V12.3V10.3C662.666 10.3 656.485 12.9718 651.452 18.245L652.898 19.626ZM669.881 12.3V14.3C675.984 14.3 680.994 16.5085 685.051 20.9713L686.531 19.626L688.011 18.2806C683.188 12.9754 677.099 10.3 669.881 10.3V12.3ZM686.531 19.626L685.117 21.0402C689.414 25.3373 691.524 30.3826 691.524 36.276H693.524H695.524C695.524 29.2934 692.972 23.2387 687.946 18.2118L686.531 19.626ZM693.524 36.276H691.524C691.524 42.4116 689.4 47.5621 685.117 51.8448L686.531 53.259L687.946 54.6732C692.987 49.6319 695.524 43.4604 695.524 36.276H693.524ZM686.531 53.259L685.083 51.8797C681.035 56.1302 676.015 58.252 669.881 58.252V60.252V62.252C677.067 62.252 683.148 59.7118 687.98 54.6383L686.531 53.259ZM669.881 60.252V58.252C663.746 58.252 658.595 56.1274 654.313 51.8448L652.898 53.259L651.484 54.6732C656.525 59.7145 662.697 62.252 669.881 62.252V60.252ZM652.898 53.259L654.313 51.8448C650.03 47.5621 647.905 42.4116 647.905 36.276H645.905H643.905C643.905 43.4604 646.443 49.6319 651.484 54.6732L652.898 53.259ZM648.569 193.119H650.569V73.239H648.569H646.569V193.119H648.569ZM648.569 73.239H650.569C650.569 72.1043 650.852 71.6206 651.066 71.4065C651.28 71.1923 651.764 70.91 652.898 70.91V68.91V66.91C651.147 66.91 649.466 67.3492 648.237 68.578C647.008 69.8069 646.569 71.4877 646.569 73.239H648.569ZM652.898 68.91V70.91H660.557V68.91V66.91H652.898V68.91ZM660.557 68.91V70.91C670.926 70.91 678.331 73.3954 683.149 78.013L684.533 76.569L685.917 75.125C680.079 69.5306 671.501 66.91 660.557 66.91V68.91ZM684.533 76.569L683.212 78.0704C688.131 82.3989 690.858 90.0182 690.858 101.544H692.858H694.858C694.858 89.5378 692.036 80.5071 685.855 75.0676L684.533 76.569ZM692.858 101.544H690.858V193.119H692.858H694.858V101.544H692.858ZM692.858 193.119H690.858C690.858 194.214 690.57 194.679 690.332 194.9C690.065 195.148 689.477 195.448 688.196 195.448V197.448V199.448C690.023 199.448 691.766 199.027 693.054 197.831C694.369 196.61 694.858 194.91 694.858 193.119H692.858ZM688.196 197.448V195.448H652.898V197.448V199.448H688.196V197.448ZM652.898 197.448V195.448C651.764 195.448 651.28 195.166 651.066 194.952C650.852 194.737 650.569 194.254 650.569 193.119H648.569H646.569C646.569 194.87 647.008 196.551 648.237 197.78C649.466 199.009 651.147 199.448 652.898 199.448V197.448ZM729.855 182.796L728.401 184.169L728.414 184.183L728.428 184.197L729.855 182.796ZM731.187 83.229L729.799 81.7893L729.792 81.7956L729.786 81.8019L731.187 83.229ZM794.124 66.579L793.732 68.5402L793.786 68.551L793.841 68.5589L794.124 66.579ZM806.778 69.576L806.112 71.462L806.129 71.4678L806.146 71.4734L806.778 69.576ZM819.432 79.566L817.575 80.3088L817.591 80.3481L817.608 80.3867L819.432 79.566ZM819.765 97.881L821.699 98.39L821.708 98.3584L821.715 98.3266L819.765 97.881ZM816.435 110.535L818.292 111.278L818.338 111.163L818.369 111.044L816.435 110.535ZM809.775 112.866L808.881 114.655L808.975 114.702L809.073 114.739L809.775 112.866ZM796.455 107.871L795.891 109.79L795.955 109.809L796.021 109.823L796.455 107.871ZM765.819 112.866L767.126 114.38L767.146 114.363L767.164 114.346L765.819 112.866ZM765.153 154.824L763.617 156.104L763.632 156.123L763.648 156.141L765.153 154.824ZM802.449 160.152L803.192 162.009L803.215 162L803.237 161.99L802.449 160.152ZM813.105 154.491L811.958 152.853L811.943 152.863L811.929 152.874L813.105 154.491ZM822.429 154.158L820.64 155.052L820.696 155.164L820.765 155.267L822.429 154.158ZM810.108 188.79L811.425 190.295L811.428 190.293L810.108 188.79ZM775.476 200.445V198.445C757.058 198.445 742.395 192.721 731.283 181.395L729.855 182.796L728.428 184.197C740.403 196.403 756.154 202.445 775.476 202.445V200.445ZM729.855 182.796L731.309 181.423C720.431 169.905 714.872 153.802 714.872 132.846H712.872H710.872C710.872 154.514 716.635 171.711 728.401 184.169L729.855 182.796ZM712.872 132.846H714.872C714.872 112.16 720.847 96.1842 732.588 84.6561L731.187 83.229L729.786 81.8019C717.108 94.2498 710.872 111.352 710.872 132.846H712.872ZM731.187 83.229L732.575 84.6687C744.58 73.0924 760.151 67.247 779.472 67.247V65.247V63.247C759.277 63.247 742.658 69.3896 729.799 81.7893L731.187 83.229ZM779.472 65.247V67.247C784.691 67.247 789.441 67.682 793.732 68.5402L794.124 66.579L794.516 64.6178C789.927 63.7 784.909 63.247 779.472 63.247V65.247ZM794.124 66.579L793.841 68.5589C798.395 69.2094 802.482 70.1807 806.112 71.462L806.778 69.576L807.444 67.69C803.526 66.3073 799.177 65.2806 794.407 64.5991L794.124 66.579ZM806.778 69.576L806.146 71.4734C812.515 73.5965 816.104 76.6315 817.575 80.3088L819.432 79.566L821.289 78.8232C819.208 73.6205 814.361 69.9955 807.411 67.6786L806.778 69.576ZM819.432 79.566L817.608 80.3867C819.346 84.2473 819.551 89.8416 817.815 97.4353L819.765 97.881L821.715 98.3266C823.531 90.3804 823.515 83.7647 821.256 78.7453L819.432 79.566ZM819.765 97.881L817.831 97.372L814.501 110.026L816.435 110.535L818.369 111.044L821.699 98.39L819.765 97.881ZM816.435 110.535L814.578 109.792C814.176 110.799 813.809 111.388 813.533 111.695C813.276 111.981 813.249 111.865 813.438 111.865V113.865V115.865C814.737 115.865 815.765 115.194 816.506 114.37C817.229 113.567 817.807 112.491 818.292 111.278L816.435 110.535ZM813.438 113.865V111.865C813.438 111.865 813.438 111.865 813.437 111.865C813.436 111.865 813.435 111.865 813.433 111.865C813.43 111.865 813.426 111.865 813.42 111.864C813.408 111.864 813.391 111.862 813.368 111.86C813.323 111.855 813.261 111.847 813.182 111.833C813.022 111.805 812.813 111.758 812.549 111.686C812.02 111.541 811.333 111.314 810.477 110.993L809.775 112.866L809.073 114.739C809.993 115.084 810.805 115.356 811.497 115.545C812.154 115.724 812.833 115.865 813.438 115.865V113.865ZM809.775 112.866L810.67 111.077C805.685 108.585 801.088 106.852 796.889 105.919L796.455 107.871L796.021 109.823C799.815 110.666 804.098 112.263 808.881 114.655L809.775 112.866ZM796.455 107.871L797.019 105.952C793.004 104.771 788.138 104.206 782.469 104.206V106.206V108.206C787.9 108.206 792.358 108.751 795.891 109.79L796.455 107.871ZM782.469 106.206V104.206C775.723 104.206 769.701 106.634 764.474 111.386L765.819 112.866L767.164 114.346C771.705 110.218 776.783 108.206 782.469 108.206V106.206ZM765.819 112.866L764.512 111.352C759.002 116.111 756.493 123.797 756.493 133.845H758.493H760.493C760.493 124.357 762.868 118.057 767.126 114.38L765.819 112.866ZM758.493 133.845H756.493C756.493 142.851 758.809 150.335 763.617 156.104L765.153 154.824L766.69 153.544C762.618 148.657 760.493 142.155 760.493 133.845H758.493ZM765.153 154.824L763.648 156.141C768.801 162.03 776.425 164.816 786.132 164.816V162.816V160.816C777.191 160.816 770.829 158.274 766.658 153.507L765.153 154.824ZM786.132 162.816V164.816C792.742 164.816 798.449 163.906 803.192 162.009L802.449 160.152L801.706 158.295C797.569 159.95 792.399 160.816 786.132 160.816V162.816ZM802.449 160.152L803.237 161.99C807.957 159.967 811.665 158.012 814.281 156.108L813.105 154.491L811.929 152.874C809.662 154.522 806.265 156.341 801.661 158.314L802.449 160.152ZM813.105 154.491L814.252 156.129C816.357 154.656 817.828 154.16 818.766 154.16V152.16V150.16C816.596 150.16 814.293 151.218 811.958 152.853L813.105 154.491ZM818.766 152.16V154.16C819.41 154.16 819.81 154.281 820.056 154.415C820.282 154.539 820.476 154.724 820.64 155.052L822.429 154.158L824.218 153.264C823.716 152.26 822.966 151.446 821.972 150.904C820.997 150.372 819.898 150.16 818.766 150.16V152.16ZM822.429 154.158L820.765 155.267C821.441 156.281 821.761 157.34 821.761 158.487H823.761H825.761C825.761 156.526 825.193 154.699 824.093 153.049L822.429 154.158ZM823.761 158.487H821.761C821.761 170.127 817.454 179.678 808.789 187.287L810.108 188.79L811.428 190.293C820.966 181.918 825.761 171.267 825.761 158.487H823.761ZM810.108 188.79L808.791 187.285C800.347 194.674 789.303 198.445 775.476 198.445V200.445V202.445C790.065 202.445 802.109 198.446 811.425 190.295L810.108 188.79ZM849.852 182.796L848.398 184.169L848.411 184.183L848.425 184.197L849.852 182.796ZM851.184 83.229L849.796 81.7893L849.789 81.7956L849.783 81.8019L851.184 83.229ZM914.121 66.579L913.729 68.5402L913.783 68.551L913.838 68.5589L914.121 66.579ZM926.775 69.576L926.11 71.462L926.126 71.4678L926.143 71.4734L926.775 69.576ZM939.429 79.566L937.572 80.3088L937.588 80.3481L937.605 80.3867L939.429 79.566ZM939.762 97.881L941.696 98.39L941.705 98.3584L941.712 98.3266L939.762 97.881ZM936.432 110.535L938.289 111.278L938.335 111.163L938.366 111.044L936.432 110.535ZM929.772 112.866L928.878 114.655L928.972 114.702L929.07 114.739L929.772 112.866ZM916.452 107.871L915.888 109.79L915.953 109.809L916.018 109.823L916.452 107.871ZM885.816 112.866L887.123 114.38L887.143 114.363L887.162 114.346L885.816 112.866ZM885.15 154.824L883.614 156.104L883.629 156.123L883.645 156.141L885.15 154.824ZM922.446 160.152L923.189 162.009L923.212 162L923.234 161.99L922.446 160.152ZM933.102 154.491L931.955 152.853L931.94 152.863L931.926 152.874L933.102 154.491ZM942.426 154.158L940.637 155.052L940.693 155.164L940.762 155.267L942.426 154.158ZM930.105 188.79L931.422 190.295L931.425 190.293L930.105 188.79ZM895.473 200.445V198.445C877.056 198.445 862.392 192.721 851.28 181.395L849.852 182.796L848.425 184.197C860.4 196.403 876.151 202.445 895.473 202.445V200.445ZM849.852 182.796L851.306 181.423C840.428 169.905 834.869 153.802 834.869 132.846H832.869H830.869C830.869 154.514 836.632 171.711 848.398 184.169L849.852 182.796ZM832.869 132.846H834.869C834.869 112.16 840.844 96.1842 852.585 84.6561L851.184 83.229L849.783 81.8019C837.105 94.2498 830.869 111.352 830.869 132.846H832.869ZM851.184 83.229L852.572 84.6687C864.577 73.0924 880.148 67.247 899.469 67.247V65.247V63.247C879.274 63.247 862.655 69.3896 849.796 81.7893L851.184 83.229ZM899.469 65.247V67.247C904.688 67.247 909.438 67.682 913.729 68.5402L914.121 66.579L914.513 64.6178C909.924 63.7 904.906 63.247 899.469 63.247V65.247ZM914.121 66.579L913.838 68.5589C918.392 69.2094 922.479 70.1807 926.11 71.462L926.775 69.576L927.441 67.69C923.523 66.3073 919.174 65.2806 914.404 64.5991L914.121 66.579ZM926.775 69.576L926.143 71.4734C932.512 73.5965 936.101 76.6315 937.572 80.3088L939.429 79.566L941.286 78.8232C939.205 73.6205 934.358 69.9955 927.408 67.6786L926.775 69.576ZM939.429 79.566L937.605 80.3867C939.343 84.2473 939.548 89.8416 937.812 97.4353L939.762 97.881L941.712 98.3266C943.528 90.3804 943.512 83.7647 941.253 78.7453L939.429 79.566ZM939.762 97.881L937.828 97.372L934.498 110.026L936.432 110.535L938.366 111.044L941.696 98.39L939.762 97.881ZM936.432 110.535L934.575 109.792C934.173 110.799 933.806 111.388 933.53 111.695C933.273 111.981 933.246 111.865 933.435 111.865V113.865V115.865C934.734 115.865 935.762 115.194 936.504 114.37C937.226 113.567 937.804 112.491 938.289 111.278L936.432 110.535ZM933.435 113.865V111.865C933.435 111.865 933.435 111.865 933.434 111.865C933.433 111.865 933.432 111.865 933.431 111.865C933.427 111.865 933.423 111.865 933.417 111.864C933.405 111.864 933.388 111.862 933.365 111.86C933.32 111.855 933.258 111.847 933.179 111.833C933.019 111.805 932.81 111.758 932.546 111.686C932.017 111.541 931.33 111.314 930.474 110.993L929.772 112.866L929.07 114.739C929.99 115.084 930.802 115.356 931.494 115.545C932.151 115.724 932.83 115.865 933.435 115.865V113.865ZM929.772 112.866L930.667 111.077C925.682 108.585 921.085 106.852 916.886 105.919L916.452 107.871L916.018 109.823C919.812 110.666 924.095 112.263 928.878 114.655L929.772 112.866ZM916.452 107.871L917.017 105.952C913.001 104.771 908.136 104.206 902.466 104.206V106.206V108.206C907.897 108.206 912.355 108.751 915.888 109.79L916.452 107.871ZM902.466 106.206V104.206C895.72 104.206 889.698 106.634 884.471 111.386L885.816 112.866L887.162 114.346C891.702 110.218 896.78 108.206 902.466 108.206V106.206ZM885.816 112.866L884.509 111.352C878.999 116.111 876.49 123.797 876.49 133.845H878.49H880.49C880.49 124.357 882.865 118.057 887.123 114.38L885.816 112.866ZM878.49 133.845H876.49C876.49 142.851 878.806 150.335 883.614 156.104L885.15 154.824L886.687 153.544C882.615 148.657 880.49 142.155 880.49 133.845H878.49ZM885.15 154.824L883.645 156.141C888.798 162.03 896.422 164.816 906.129 164.816V162.816V160.816C897.188 160.816 890.826 158.274 886.655 153.507L885.15 154.824ZM906.129 162.816V164.816C912.739 164.816 918.446 163.906 923.189 162.009L922.446 160.152L921.703 158.295C917.566 159.95 912.396 160.816 906.129 160.816V162.816ZM922.446 160.152L923.234 161.99C927.954 159.967 931.662 158.012 934.279 156.108L933.102 154.491L931.926 152.874C929.659 154.522 926.262 156.341 921.658 158.314L922.446 160.152ZM933.102 154.491L934.249 156.129C936.354 154.656 937.825 154.16 938.763 154.16V152.16V150.16C936.593 150.16 934.29 151.218 931.955 152.853L933.102 154.491ZM938.763 152.16V154.16C939.407 154.16 939.807 154.281 940.053 154.415C940.279 154.539 940.473 154.724 940.637 155.052L942.426 154.158L944.215 153.264C943.713 152.26 942.963 151.446 941.969 150.904C940.994 150.372 939.895 150.16 938.763 150.16V152.16ZM942.426 154.158L940.762 155.267C941.438 156.281 941.758 157.34 941.758 158.487H943.758H945.758C945.758 156.526 945.19 154.699 944.09 153.049L942.426 154.158ZM943.758 158.487H941.758C941.758 170.127 937.451 179.678 928.786 187.287L930.105 188.79L931.425 190.293C940.963 181.918 945.758 171.267 945.758 158.487H943.758ZM930.105 188.79L928.788 187.285C920.344 194.674 909.3 198.445 895.473 198.445V200.445V202.445C910.062 202.445 922.107 198.446 931.422 190.295L930.105 188.79Z" fill="white" mask="url(#path-1-outside-1_79_13)"/>
</g>
<defs>
<filter id="filter0_ngn_79_13" x="4.86374e-05" y="-1.23978e-05" width="956.058" height="213.078" filterUnits="userSpaceOnUse" color-interpolation-filters="sRGB">
<feFlood flood-opacity="0" result="BackgroundImageFix"/>
<feBlend mode="normal" in="SourceGraphic" in2="BackgroundImageFix" result="shape"/>
<feTurbulence type="fractalNoise" baseFrequency="0.66666668653488159 0.66666668653488159" stitchTiles="stitch" numOctaves="3" result="noise" seed="3022" />
<feColorMatrix in="noise" type="luminanceToAlpha" result="alphaNoise" />
<feComponentTransfer in="alphaNoise" result="coloredNoise1">
<feFuncA type="discrete" tableValues="1 1 1 1 1 1 1 1 1 1 1 1 1 1 1 1 1 1 1 1 1 1 1 1 1 1 1 1 1 1 1 1 1 1 1 1 1 1 1 1 1 1 1 1 1 1 1 1 1 1 1 0 0 0 0 0 0 0 0 0 0 0 0 0 0 0 0 0 0 0 0 0 0 0 0 0 0 0 0 0 0 0 0 0 0 0 0 0 0 0 0 0 0 0 0 0 0 0 0 0 "/>
</feComponentTransfer>
<feComposite operator="in" in2="shape" in="coloredNoise1" result="noise1Clipped" />
<feFlood flood-color="#000000" result="color1Flood" />
<feComposite operator="in" in2="noise1Clipped" in="color1Flood" result="color1" />
<feMerge result="effect1_noise_79_13">
<feMergeNode in="shape" />
<feMergeNode in="color1" />
</feMerge>
<feTurbulence type="fractalNoise" baseFrequency="0.021598272025585175 0.021598272025585175" numOctaves="3" seed="5309" />
<feDisplacementMap in="effect1_noise_79_13" scale="20.600000381469727" xChannelSelector="R" yChannelSelector="G" result="displacedImage" width="100%" height="100%" />
<feMerge result="effect2_texture_79_13">
<feMergeNode in="displacedImage"/>
</feMerge>
<feTurbulence type="fractalNoise" baseFrequency="0.010309278033673763 0.010309278033673763" stitchTiles="stitch" numOctaves="3" result="noise" seed="2068" />
<feComponentTransfer in="noise" result="coloredNoise1">
<feFuncR type="linear" slope="2" intercept="-0.5" />
<feFuncG type="linear" slope="2" intercept="-0.5" />
<feFuncB type="linear" slope="2" intercept="-0.5" />
<feFuncA type="discrete" tableValues="1 1 1 1 1 1 1 1 1 1 1 1 1 1 1 1 1 1 1 1 1 1 1 1 1 1 1 1 1 1 1 1 1 1 1 1 1 1 1 1 1 1 1 1 1 1 1 1 1 1 1 0 0 0 0 0 0 0 0 0 0 0 0 0 0 0 0 0 0 0 0 0 0 0 0 0 0 0 0 0 0 0 0 0 0 0 0 0 0 0 0 0 0 0 0 0 0 0 0 0 "/>
</feComponentTransfer>
<feComposite operator="in" in2="effect2_texture_79_13" in="coloredNoise1" result="noise1Clipped" />
<feComponentTransfer in="noise1Clipped" result="color1">
<feFuncA type="table" tableValues="0 0.32" />
</feComponentTransfer>
<feMerge result="effect3_noise_79_13">
<feMergeNode in="effect2_texture_79_13" />
<feMergeNode in="color1" />
</feMerge>
</filter>
</defs>
</svg>
