<svg width="1500" height="1500" viewBox="0 0 1500 1500" fill="none" xmlns="http://www.w3.org/2000/svg">
<path d="M672.5 210L935 331L1197.5 614.5L1339.5 973.5L1323.5 1244.5L1015.5 1308.5L803 1290L432 1283.5L232 1296.5V1107L256 879L245 629.5L257.5 453L281 314.5L305 219.5L612.5 210H672.5Z" fill="#FF0031"/>
<path d="M740.5 180L1003 301L1265.5 584.5L1359 841L1245 933L991 838L726 557L629 275.5L740.5 180Z" fill="#8C0D26" fill-opacity="0.78"/>
<path d="M726 557L991 838L733 810.5L726 557Z" fill="#642625" fill-opacity="0.61"/>
<path d="M629 275.5L726 557L516 444.5L629 275.5Z" fill="#611D1E" fill-opacity="0.8"/>
<path d="M494 172.5L740.5 180L629 275.5L494 172.5Z" fill="#3A0005" fill-opacity="0.84"/>
<path d="M1359 841L1367 997.5L1245 933L1359 841Z" fill="#300608" fill-opacity="0.81"/>
<path d="M991 838L1245 933L817 1136L733 810.5L991 838Z" fill="#820A0C" fill-opacity="0.53"/>
<path d="M726 557L733 810.5L403.5 717.5L516 444.5L726 557Z" fill="#981012" fill-opacity="0.4"/>
<path d="M494 172.5L629 275.5L516 444.5L258 301.5L494 172.5Z" fill="#C75257" fill-opacity="0.63"/>
<path d="M1084.5 1009L1173 1215H927L817 1136L1084.5 1009Z" fill="#7B2934" fill-opacity="0.71"/>
<path d="M733 810.5L817 1136L569.5 964.5L733 810.5Z" fill="#0F0000" fill-opacity="0.73"/>
<path d="M569.5 964.5L817 1136L597 1216L282.5 1229L569.5 964.5Z" fill="#680102" fill-opacity="0.69"/>
<path d="M569.5 964.5L403.5 717.5L316 925.5L282.5 1229L569.5 964.5Z" fill="#891019" fill-opacity="0.8"/>
<path d="M403.5 717.5L733 810.5L569.5 964.5L403.5 717.5Z" fill="#4C0A0B" fill-opacity="0.7"/>
<path d="M1245 933L1367 997.5L1315.5 1094.5L1245 1057.5V933Z" fill="#401818" fill-opacity="0.48"/>
<path d="M1245 933V1057.5L1106 1059L1084.5 1009L1245 933Z" fill="#4A0100" fill-opacity="0.86"/>
<path d="M1106 1059L1245 1057.5L1315.5 1094.5L1282.5 1208L1226 1315L1173 1215L1106 1059Z" fill="#BD051D" fill-opacity="0.74"/>
<path d="M398 471L516 444.5L440.5 628L398 471Z" fill="#C04346" fill-opacity="0.56"/>
<path d="M258 301.5L516 444.5L398 471L258 301.5Z" fill="#711212" fill-opacity="0.4"/>
<path d="M258 301.5L398 471L440.5 628L316 925.5L218.5 1052L201.5 348.5L258 301.5Z" fill="#5E0000" fill-opacity="0.78"/>
<path d="M398 471L440.5 628L403.5 717.5L316 925.5L218.5 1052L398 471Z" fill="#85090A" fill-opacity="0.42"/>
<path d="M493.5 172L257.5 301L201 348L257.5 172H493.5Z" fill="#510705" fill-opacity="0.79"/>
<path d="M316 925.5L282.5 1229L218.5 1307V1052L316 925.5Z" fill="#6E0C10" fill-opacity="0.68"/>
<path d="M597 1216L454.5 1307H218.5L282.5 1229L597 1216Z" fill="#350E09" fill-opacity="0.58"/>
<path d="M817 1136L927 1215L1000.5 1344.5L454.5 1307L597 1216L817 1136Z" fill="#B30B1A" fill-opacity="0.74"/>
<path d="M1173 1215L1226 1315L1000.5 1344.5L926.5 1215H1173Z" fill="#BD051D" fill-opacity="0.64"/>
<path d="M1367 997.5L1390 1193L1315.5 1094.5L1367 997.5Z" fill="black" fill-opacity="0.74"/>
<path d="M1315.5 1094.5L1390 1193L1282.5 1208L1315.5 1094.5Z" fill="#370F0F" fill-opacity="0.69"/>
<path d="M1390 1193L1347.5 1305.5L1226 1315L1282.5 1208L1390 1193Z" fill="#A6162C"/>
</svg>
